<svg xmlns="http://www.w3.org/2000/svg" viewBox="0 0 800 600">
  <!-- Sky gradient background -->
  <defs>
    <linearGradient id="skyGradient" x1="0%" y1="0%" x2="0%" y2="100%">
      <stop offset="0%" stop-color="#87CEEB" />
      <stop offset="100%" stop-color="#B0E2FF" />
    </linearGradient>
  </defs>
  <rect width="800" height="600" fill="url(#skyGradient)" />
  
  <!-- Ground/lawn -->
  <rect x="0" y="400" width="800" height="200" fill="#4CAF50" />
  
  <!-- Main road -->
  <path d="M0,450 L800,450" stroke="#888888" stroke-width="40" />
  <path d="M0,450 L800,450" stroke="#AAAAAA" stroke-width="38" />
  <path d="M0,450 L800,450" stroke-dasharray="20,20" stroke="#FFFFFF" stroke-width="2" />
  
  <!-- Sidewalk -->
  <rect x="0" y="425" width="800" height="10" fill="#DDDDDD" />
  
  <!-- Modern Townhouses Row -->
  
  <!-- Townhouse 1 -->
  <g transform="translate(50, 200)">
    <!-- Main Structure -->
    <rect x="0" y="0" width="120" height="200" fill="#EFEFEF" />
    
    <!-- Roof -->
    <polygon points="0,0 60,40 120,0" fill="#555555" />
    
    <!-- Windows -->
    <rect x="20" y="50" width="35" height="50" fill="#B0E2FF" stroke="#FFFFFF" stroke-width="2" />
    <rect x="65" y="50" width="35" height="50" fill="#B0E2FF" stroke="#FFFFFF" stroke-width="2" />
    <rect x="20" y="110" width="35" height="50" fill="#B0E2FF" stroke="#FFFFFF" stroke-width="2" />
    <rect x="65" y="110" width="35" height="50" fill="#B0E2FF" stroke="#FFFFFF" stroke-width="2" />
    
    <!-- Door -->
    <rect x="45" y="170" width="30" height="30" fill="#6D4C41" />
    <circle cx="50" cy="185" r="2" fill="#DDDDDD" />
    
    <!-- Balcony -->
    <rect x="20" y="100" width="80" height="5" fill="#999999" />
    <line x1="20" y1="100" x2="20" y2="90" stroke="#999999" stroke-width="2" />
    <line x1="40" y1="100" x2="40" y2="90" stroke="#999999" stroke-width="2" />
    <line x1="60" y1="100" x2="60" y2="90" stroke="#999999" stroke-width="2" />
    <line x1="80" y1="100" x2="80" y2="90" stroke="#999999" stroke-width="2" />
    <line x1="100" y1="100" x2="100" y2="90" stroke="#999999" stroke-width="2" />
  </g>
  
  <!-- Townhouse 2 -->
  <g transform="translate(180, 200)">
    <!-- Main Structure -->
    <rect x="0" y="0" width="120" height="200" fill="#F5F5F5" />
    
    <!-- Roof -->
    <polygon points="0,0 60,40 120,0" fill="#555555" />
    
    <!-- Windows -->
    <rect x="20" y="50" width="35" height="50" fill="#B0E2FF" stroke="#FFFFFF" stroke-width="2" />
    <rect x="65" y="50" width="35" height="50" fill="#B0E2FF" stroke="#FFFFFF" stroke-width="2" />
    <rect x="20" y="110" width="35" height="50" fill="#B0E2FF" stroke="#FFFFFF" stroke-width="2" />
    <rect x="65" y="110" width="35" height="50" fill="#B0E2FF" stroke="#FFFFFF" stroke-width="2" />
    
    <!-- Door -->
    <rect x="45" y="170" width="30" height="30" fill="#5D4037" />
    <circle cx="50" cy="185" r="2" fill="#DDDDDD" />
    
    <!-- Balcony -->
    <rect x="20" y="100" width="80" height="5" fill="#999999" />
    <line x1="20" y1="100" x2="20" y2="90" stroke="#999999" stroke-width="2" />
    <line x1="40" y1="100" x2="40" y2="90" stroke="#999999" stroke-width="2" />
    <line x1="60" y1="100" x2="60" y2="90" stroke="#999999" stroke-width="2" />
    <line x1="80" y1="100" x2="80" y2="90" stroke="#999999" stroke-width="2" />
    <line x1="100" y1="100" x2="100" y2="90" stroke="#999999" stroke-width="2" />
  </g>
  
  <!-- Townhouse 3 -->
  <g transform="translate(310, 200)">
    <!-- Main Structure -->
    <rect x="0" y="0" width="120" height="200" fill="#EFEFEF" />
    
    <!-- Roof -->
    <polygon points="0,0 60,40 120,0" fill="#555555" />
    
    <!-- Windows -->
    <rect x="20" y="50" width="35" height="50" fill="#B0E2FF" stroke="#FFFFFF" stroke-width="2" />
    <rect x="65" y="50" width="35" height="50" fill="#B0E2FF" stroke="#FFFFFF" stroke-width="2" />
    <rect x="20" y="110" width="35" height="50" fill="#B0E2FF" stroke="#FFFFFF" stroke-width="2" />
    <rect x="65" y="110" width="35" height="50" fill="#B0E2FF" stroke="#FFFFFF" stroke-width="2" />
    
    <!-- Door -->
    <rect x="45" y="170" width="30" height="30" fill="#6D4C41" />
    <circle cx="50" cy="185" r="2" fill="#DDDDDD" />
    
    <!-- Balcony -->
    <rect x="20" y="100" width="80" height="5" fill="#999999" />
    <line x1="20" y1="100" x2="20" y2="90" stroke="#999999" stroke-width="2" />
    <line x1="40" y1="100" x2="40" y2="90" stroke="#999999" stroke-width="2" />
    <line x1="60" y1="100" x2="60" y2="90" stroke="#999999" stroke-width="2" />
    <line x1="80" y1="100" x2="80" y2="90" stroke="#999999" stroke-width="2" />
    <line x1="100" y1="100" x2="100" y2="90" stroke="#999999" stroke-width="2" />
  </g>
  
  <!-- Modern Apartment Building -->
  <g transform="translate(500, 100)">
    <!-- Main Structure -->
    <rect x="0" y="0" width="250" height="300" fill="#E0E0E0" rx="5" ry="5" />
    
    <!-- Glass Facade Elements -->
    <rect x="20" y="30" width="210" height="250" fill="#DBEEFF" stroke="#CCCCCC" stroke-width="2" />
    
    <!-- Horizontal Dividers -->
    <rect x="10" y="100" width="230" height="10" fill="#CCCCCC" />
    <rect x="10" y="200" width="230" height="10" fill="#CCCCCC" />
    
    <!-- Windows Top Floor -->
    <rect x="30" y="40" width="40" height="50" fill="#B0E2FF" stroke="#FFFFFF" stroke-width="2" />
    <rect x="80" y="40" width="40" height="50" fill="#B0E2FF" stroke="#FFFFFF" stroke-width="2" />
    <rect x="130" y="40" width="40" height="50" fill="#B0E2FF" stroke="#FFFFFF" stroke-width="2" />
    <rect x="180" y="40" width="40" height="50" fill="#B0E2FF" stroke="#FFFFFF" stroke-width="2" />
    
    <!-- Windows Middle Floor -->
    <rect x="30" y="120" width="40" height="50" fill="#B0E2FF" stroke="#FFFFFF" stroke-width="2" />
    <rect x="80" y="120" width="40" height="50" fill="#B0E2FF" stroke="#FFFFFF" stroke-width="2" />
    <rect x="130" y="120" width="40" height="50" fill="#B0E2FF" stroke="#FFFFFF" stroke-width="2" />
    <rect x="180" y="120" width="40" height="50" fill="#B0E2FF" stroke="#FFFFFF" stroke-width="2" />
    
    <!-- Windows Bottom Floor -->
    <rect x="30" y="220" width="40" height="50" fill="#B0E2FF" stroke="#FFFFFF" stroke-width="2" />
    <rect x="80" y="220" width="40" height="50" fill="#B0E2FF" stroke="#FFFFFF" stroke-width="2" />
    <rect x="130" y="220" width="40" height="50" fill="#B0E2FF" stroke="#FFFFFF" stroke-width="2" />
    <rect x="180" y="220" width="40" height="50" fill="#B0E2FF" stroke="#FFFFFF" stroke-width="2" />
    
    <!-- Balconies -->
    <rect x="-10" y="100" width="270" height="5" fill="#AAAAAA" />
    <rect x="-10" y="200" width="270" height="5" fill="#AAAAAA" />
    
    <!-- Entrance -->
    <rect x="105" y="270" width="40" height="30" fill="#424242" />
  </g>
  
  <!-- Landscaping -->
  
  <!-- Trees -->
  <g transform="translate(100, 380)">
    <rect x="-5" y="0" width="10" height="20" fill="#8B4513" />
    <ellipse cx="0" cy="-15" rx="20" ry="25" fill="#2E7D32" />
  </g>
  
  <g transform="translate(250, 380)">
    <rect x="-5" y="0" width="10" height="20" fill="#8B4513" />
    <ellipse cx="0" cy="-15" rx="20" ry="25" fill="#2E7D32" />
  </g>
  
  <g transform="translate(400, 380)">
    <rect x="-5" y="0" width="10" height="20" fill="#8B4513" />
    <ellipse cx="0" cy="-15" rx="20" ry="25" fill="#2E7D32" />
  </g>
  
  <g transform="translate(650, 380)">
    <rect x="-5" y="0" width="10" height="20" fill="#8B4513" />
    <ellipse cx="0" cy="-15" rx="20" ry="25" fill="#2E7D32" />
  </g>
  
  <!-- Bushes -->
  <ellipse cx="150" cy="410" rx="15" ry="10" fill="#388E3C" />
  <ellipse cx="330" cy="410" rx="15" ry="10" fill="#388E3C" />
  <ellipse cx="370" cy="410" rx="15" ry="10" fill="#388E3C" />
  <ellipse cx="550" cy="410" rx="15" ry="10" fill="#388E3C" />
  <ellipse cx="590" cy="410" rx="15" ry="10" fill="#388E3C" />
  <ellipse cx="630" cy="410" rx="15" ry="10" fill="#388E3C" />
  
  <!-- Flower Beds -->
  <ellipse cx="200" cy="410" rx="25" ry="10" fill="#795548" />
  <ellipse cx="195" cy="407" rx="3" ry="3" fill="#E91E63" />
  <ellipse cx="205" cy="407" rx="3" ry="3" fill="#E91E63" />
  <ellipse cx="210" cy="410" rx="3" ry="3" fill="#9C27B0" />
  <ellipse cx="190" cy="410" rx="3" ry="3" fill="#9C27B0" />
  
  <ellipse cx="500" cy="410" rx="25" ry="10" fill="#795548" />
  <ellipse cx="495" cy="407" rx="3" ry="3" fill="#E91E63" />
  <ellipse cx="505" cy="407" rx="3" ry="3" fill="#E91E63" />
  <ellipse cx="510" cy="410" rx="3" ry="3" fill="#9C27B0" />
  <ellipse cx="490" cy="410" rx="3" ry="3" fill="#9C27B0" />
  
  <!-- Pathway to homes -->
  <path d="M75,450 L75,400" stroke="#DDDDDD" stroke-width="10" />
  <path d="M205,450 L205,400" stroke="#DDDDDD" stroke-width="10" />
  <path d="M335,450 L335,400" stroke="#DDDDDD" stroke-width="10" />
  <path d="M625,450 L625,400" stroke="#DDDDDD" stroke-width="10" />
  
  <!-- Cars parked on street -->
  <g transform="translate(150,460) scale(0.7)">
    <rect x="0" y="0" width="60" height="20" rx="5" ry="5" fill="#2196F3" />
    <rect x="10" y="-10" width="40" height="15" rx="3" ry="3" fill="#BBDEFB" />
    <circle cx="15" cy="20" r="5" fill="#212121" />
    <circle cx="45" cy="20" r="5" fill="#212121" />
  </g>
  
  <g transform="translate(400,460) scale(0.7)">
    <rect x="0" y="0" width="60" height="20" rx="5" ry="5" fill="#F44336" />
    <rect x="10" y="-10" width="40" height="15" rx="3" ry="3" fill="#FFCDD2" />
    <circle cx="15" cy="20" r="5" fill="#212121" />
    <circle cx="45" cy="20" r="5" fill="#212121" />
  </g>
  
  <g transform="translate(550,460) scale(0.7)">
    <rect x="0" y="0" width="60" height="20" rx="5" ry="5" fill="#607D8B" />
    <rect x="10" y="-10" width="40" height="15" rx="3" ry="3" fill="#CFD8DC" />
    <circle cx="15" cy="20" r="5" fill="#212121" />
    <circle cx="45" cy="20" r="5" fill="#212121" />
  </g>
  
  <!-- Property Sign -->
  <g transform="translate(700, 380)">
    <rect x="-40" y="0" width="80" height="40" fill="#3b82f6" />
    <rect x="-38" y="2" width="76" height="36" fill="#ffffff" />
    <text x="0" y="15" font-family="Arial, sans-serif" font-size="8" font-weight="bold" fill="#1e293b" text-anchor="middle">WOODLAND HEIGHTS</text>
    <text x="0" y="25" font-family="Arial, sans-serif" font-size="6" fill="#3b82f6" text-anchor="middle">LUXURY TOWNHOMES</text>
    <text x="0" y="35" font-family="Arial, sans-serif" font-size="6" fill="#10b981" text-anchor="middle">PROPCHAIN DEVELOPMENT</text>
    <rect x="-3" y="40" width="6" height="30" fill="#AAAAAA" />
  </g>
  
  <!-- Sky details -->
  <circle cx="100" cy="100" r="30" fill="#FFEB3B" opacity="0.7" />
  <ellipse cx="150" cy="90" rx="35" ry="10" fill="#FFFFFF" opacity="0.6" />
  <ellipse cx="300" cy="70" rx="55" ry="15" fill="#FFFFFF" opacity="0.6" />
  <ellipse cx="500" cy="80" rx="45" ry="10" fill="#FFFFFF" opacity="0.6" />
  <ellipse cx="650" cy="60" rx="50" ry="12" fill="#FFFFFF" opacity="0.6" />
  
  <!-- Shadows -->
  <ellipse cx="125" cy="405" rx="50" ry="5" fill="#000000" opacity="0.2" />
  <ellipse cx="245" cy="405" rx="50" ry="5" fill="#000000" opacity="0.2" />
  <ellipse cx="370" cy="405" rx="50" ry="5" fill="#000000" opacity="0.2" />
  <ellipse cx="625" cy="405" rx="120" ry="10" fill="#000000" opacity="0.2" />
  
  <!-- Photo frame effect -->
  <rect x="0" y="0" width="800" height="15" fill="#ffffff" opacity="0.7" />
  <rect x="0" y="585" width="800" height="15" fill="#ffffff" opacity="0.7" />
  <rect x="0" y="0" width="15" height="600" fill="#ffffff" opacity="0.7" />
  <rect x="785" y="0" width="15" height="600" fill="#ffffff" opacity="0.7" />
  
  <!-- Photo quality enhancement - subtle vignette -->
  <rect width="800" height="600" fill="url(#vignette)" opacity="0.3" />
  <defs>
    <radialGradient id="vignette" cx="50%" cy="50%" r="65%" fx="50%" fy="50%">
      <stop offset="0%" stop-color="#FFFFFF" stop-opacity="0" />
      <stop offset="100%" stop-color="#000000" stop-opacity="1" />
    </radialGradient>
  </defs>
</svg>
