<svg xmlns="http://www.w3.org/2000/svg" viewBox="0 0 1000 700">
  <!-- Background -->
  <rect width="1000" height="700" fill="#1e293b" />
  
  <!-- Header -->
  <rect x="0" y="0" width="1000" height="70" fill="#0f172a" />
  
  <!-- PropChain Logo -->
  <g transform="translate(30, 35)">
    <!-- Chain link -->
    <path d="M15,15 C15,11 12.5,7.5 9,7.5 C5.5,7.5 2.5,11 2.5,15 C2.5,19 5.5,22.5 9,22.5 L15,22.5" 
          fill="none" stroke="#3b82f6" stroke-width="2" stroke-linecap="round" />
    <path d="M14,22.5 L20,22.5 C23.5,22.5 26.5,19 26.5,15 C26.5,11 23.5,7.5 20,7.5 C16.5,7.5 14,11 14,15" 
          fill="none" stroke="#60a5fa" stroke-width="2" stroke-linecap="round" />
    
    <!-- House roof -->
    <path d="M7.5,7.5 L20,0 L32.5,7.5" fill="none" stroke="#10b981" stroke-width="2" stroke-linecap="round" stroke-linejoin="round" />
    
    <!-- House body -->
    <rect x="12.5" y="7.5" width="15" height="15" fill="none" stroke="#34d399" stroke-width="2" stroke-linejoin="round" />
  </g>
  <text x="75" y="40" font-family="Arial, sans-serif" font-size="20" font-weight="bold" fill="#ffffff">PropChain</text>
  
  <!-- Header Controls -->
  <rect x="700" y="20" width="180" height="30" rx="15" fill="#334155" />
  <text x="730" y="40" font-family="Arial, sans-serif" font-size="12" fill="#94a3b8">Search properties, transactions...</text>
  <circle cx="715" cy="35" r="6" fill="none" stroke="#94a3b8" stroke-width="1.5" />
  <line x1="719" y1="39" x2="722" y2="42" stroke="#94a3b8" stroke-width="1.5" />
  
  <circle cx="920" cy="35" r="15" fill="#334155" />
  <text x="920" y="40" font-family="Arial, sans-serif" font-size="12" fill="#3b82f6" text-anchor="middle">3</text>
  
  <circle cx="960" cy="35" r="15" fill="#334155" />
  <text x="960" y="40" font-family="Arial, sans-serif" font-size="18" font-weight="bold" fill="#ffffff" text-anchor="middle">JS</text>
  
  <!-- Left Sidebar -->
  <rect x="0" y="70" width="200" height="630" fill="#0f172a" />
  
  <!-- Navigation Items -->
  <rect x="20" y="100" width="160" height="40" rx="5" fill="#3b82f6" />
  <text x="70" y="125" font-family="Arial, sans-serif" font-size="14" fill="#ffffff">Dashboard</text>
  <rect x="30" y="110" width="20" height="20" fill="#60a5fa" opacity="0.7" rx="3" />
  <rect x="33" y="113" width="14" height="14" fill="#ffffff" opacity="0.9" rx="2" />
  
  <rect x="20" y="150" width="160" height="40" rx="5" fill="#0f172a" />
  <text x="70" y="175" font-family="Arial, sans-serif" font-size="14" fill="#ffffff">Properties</text>
  <rect x="30" y="160" width="20" height="20" fill="#60a5fa" opacity="0.7" rx="3" />
  <rect x="33" y="163" width="14" height="14" fill="#ffffff" opacity="0.9" rx="2" />
  
  <rect x="20" y="200" width="160" height="40" rx="5" fill="#0f172a" />
  <text x="70" y="225" font-family="Arial, sans-serif" font-size="14" fill="#ffffff">Transactions</text>
  <rect x="30" y="210" width="20" height="20" fill="#60a5fa" opacity="0.7" rx="3" />
  <rect x="33" y="213" width="14" height="14" fill="#ffffff" opacity="0.9" rx="2" />
  
  <rect x="20" y="250" width="160" height="40" rx="5" fill="#0f172a" />
  <text x="70" y="275" font-family="Arial, sans-serif" font-size="14" fill="#ffffff">Analytics</text>
  <rect x="30" y="260" width="20" height="20" fill="#60a5fa" opacity="0.7" rx="3" />
  <rect x="33" y="263" width="14" height="14" fill="#ffffff" opacity="0.9" rx="2" />
  
  <rect x="20" y="300" width="160" height="40" rx="5" fill="#0f172a" />
  <text x="70" y="325" font-family="Arial, sans-serif" font-size="14" fill="#ffffff">Documents</text>
  <rect x="30" y="310" width="20" height="20" fill="#60a5fa" opacity="0.7" rx="3" />
  <rect x="33" y="313" width="14" height="14" fill="#ffffff" opacity="0.9" rx="2" />
  
  <rect x="20" y="350" width="160" height="40" rx="5" fill="#0f172a" />
  <text x="70" y="375" font-family="Arial, sans-serif" font-size="14" fill="#ffffff">Settings</text>
  <rect x="30" y="360" width="20" height="20" fill="#60a5fa" opacity="0.7" rx="3" />
  <rect x="33" y="363" width="14" height="14" fill="#ffffff" opacity="0.9" rx="2" />
  
  <!-- User Box -->
  <rect x="20" y="600" width="160" height="70" rx="5" fill="#334155" />
  <circle cx="50" cy="625" r="20" fill="#3b82f6" />
  <text x="50" y="630" font-family="Arial, sans-serif" font-size="14" font-weight="bold" fill="#ffffff" text-anchor="middle">JS</text>
  <text x="110" y="620" font-family="Arial, sans-serif" font-size="14" fill="#ffffff">James Smith</text>
  <text x="110" y="640" font-family="Arial, sans-serif" font-size="12" fill="#94a3b8">Developer</text>
  
  <!-- Main Content -->
  <rect x="200" y="70" width="800" height="630" fill="#1e293b" />
  
  <!-- Page Title -->
  <text x="230" y="110" font-family="Arial, sans-serif" font-size="20" font-weight="bold" fill="#ffffff">Developer Dashboard</text>
  <text x="230" y="135" font-family="Arial, sans-serif" font-size="14" fill="#94a3b8">Woodland Heights Development</text>
  
  <!-- Metric Cards Row -->
  <rect x="230" y="160" width="180" height="100" rx="5" fill="#334155" />
  <text x="250" y="185" font-family="Arial, sans-serif" font-size="14" fill="#94a3b8">Active Properties</text>
  <text x="250" y="220" font-family="Arial, sans-serif" font-size="28" font-weight="bold" fill="#3b82f6">24</text>
  <text x="290" y="220" font-family="Arial, sans-serif" font-size="16" fill="#ffffff">Units</text>
  <circle cx="380" cy="200" r="15" fill="#1e293b" stroke="#3b82f6" stroke-width="2" />
  <path d="M370,200 L380,190 L390,200" stroke="#3b82f6" stroke-width="2" fill="none" />
  
  <rect x="430" y="160" width="180" height="100" rx="5" fill="#334155" />
  <text x="450" y="185" font-family="Arial, sans-serif" font-size="14" fill="#94a3b8">Avg. Transaction Time</text>
  <text x="450" y="220" font-family="Arial, sans-serif" font-size="28" font-weight="bold" fill="#10b981">3.4</text>
  <text x="500" y="220" font-family="Arial, sans-serif" font-size="16" fill="#ffffff">weeks</text>
  <circle cx="580" cy="200" r="15" fill="#1e293b" stroke="#10b981" stroke-width="2" />
  <path d="M570,200 L580,210 L590,200" stroke="#10b981" stroke-width="2" fill="none" />
  
  <rect x="630" y="160" width="180" height="100" rx="5" fill="#334155" />
  <text x="650" y="185" font-family="Arial, sans-serif" font-size="14" fill="#94a3b8">Cost Reduction</text>
  <text x="650" y="220" font-family="Arial, sans-serif" font-size="28" font-weight="bold" fill="#60a5fa">48%</text>
  <circle cx="780" cy="200" r="20" fill="#1e293b" />
  <path d="M765,200 L775,210 L795,190" stroke="#60a5fa" stroke-width="2" fill="none" />
  
  <!-- Sales Pipeline Section -->
  <rect x="230" y="280" width="340" height="270" rx="5" fill="#334155" />
  <text x="250" y="310" font-family="Arial, sans-serif" font-size="16" font-weight="bold" fill="#ffffff">Sales Pipeline</text>
  
  <!-- Pipeline Stages -->
  <rect x="250" y="330" width="70" height="30" rx="5" fill="#1e293b" />
  <text x="285" y="350" font-family="Arial, sans-serif" font-size="12" fill="#ffffff" text-anchor="middle">New</text>
  
  <rect x="330" y="330" width="70" height="30" rx="5" fill="#1e293b" />
  <text x="365" y="350" font-family="Arial, sans-serif" font-size="12" fill="#ffffff" text-anchor="middle">Viewings</text>
  
  <rect x="410" y="330" width="70" height="30" rx="5" fill="#1e293b" />
  <text x="445" y="350" font-family="Arial, sans-serif" font-size="12" fill="#ffffff" text-anchor="middle">Offers</text>
  
  <rect x="490" y="330" width="70" height="30" rx="5" fill="#1e293b" />
  <text x="525" y="350" font-family="Arial, sans-serif" font-size="12" fill="#ffffff" text-anchor="middle">Closing</text>
  
  <!-- Pipeline Items -->
  <!-- Stage 1 -->
  <rect x="250" y="370" width="70" height="70" rx="5" fill="#1e293b" />
  <rect x="255" y="375" width="60" height="15" rx="2" fill="#334155" />
  <text x="260" y="386" font-family="Arial, sans-serif" font-size="8" fill="#60a5fa">Unit 45A</text>
  <text x="260" y="405" font-family="Arial, sans-serif" font-size="10" fill="#ffffff">3 Bed House</text>
  <text x="260" y="420" font-family="Arial, sans-serif" font-size="10" fill="#10b981">£425,000</text>
  
  <rect x="250" y="450" width="70" height="70" rx="5" fill="#1e293b" />
  <rect x="255" y="455" width="60" height="15" rx="2" fill="#334155" />
  <text x="260" y="466" font-family="Arial, sans-serif" font-size="8" fill="#60a5fa">Unit 46B</text>
  <text x="260" y="485" font-family="Arial, sans-serif" font-size="10" fill="#ffffff">3 Bed House</text>
  <text x="260" y="500" font-family="Arial, sans-serif" font-size="10" fill="#10b981">£450,000</text>
  
  <!-- Stage 2 -->
  <rect x="330" y="370" width="70" height="70" rx="5" fill="#1e293b" />
  <rect x="335" y="375" width="60" height="15" rx="2" fill="#334155" />
  <text x="340" y="386" font-family="Arial, sans-serif" font-size="8" fill="#60a5fa">Unit 42C</text>
  <text x="340" y="405" font-family="Arial, sans-serif" font-size="10" fill="#ffffff">4 Viewings</text>
  <text x="340" y="420" font-family="Arial, sans-serif" font-size="10" fill="#10b981">£385,000</text>
  
  <rect x="330" y="450" width="70" height="70" rx="5" fill="#1e293b" />
  <rect x="335" y="455" width="60" height="15" rx="2" fill="#334155" />
  <text x="340" y="466" font-family="Arial, sans-serif" font-size="8" fill="#60a5fa">Unit 44A</text>
  <text x="340" y="485" font-family="Arial, sans-serif" font-size="10" fill="#ffffff">2 Viewings</text>
  <text x="340" y="500" font-family="Arial, sans-serif" font-size="10" fill="#10b981">£410,000</text>
  
  <!-- Stage 3 -->
  <rect x="410" y="370" width="70" height="70" rx="5" fill="#1e293b" />
  <rect x="415" y="375" width="60" height="15" rx="2" fill="#334155" />
  <text x="420" y="386" font-family="Arial, sans-serif" font-size="8" fill="#60a5fa">Unit 40B</text>
  <text x="420" y="405" font-family="Arial, sans-serif" font-size="10" fill="#ffffff">Offer Received</text>
  <text x="420" y="420" font-family="Arial, sans-serif" font-size="10" fill="#10b981">£430,000</text>
  
  <!-- Stage 4 -->
  <rect x="490" y="370" width="70" height="70" rx="5" fill="#1e293b" />
  <rect x="495" y="375" width="60" height="15" rx="2" fill="#334155" />
  <text x="500" y="386" font-family="Arial, sans-serif" font-size="8" fill="#60a5fa">Unit 38A</text>
  <text x="500" y="405" font-family="Arial, sans-serif" font-size="10" fill="#ffffff">Contract</text>
  <text x="500" y="420" font-family="Arial, sans-serif" font-size="10" fill="#10b981">85% Complete</text>
  
  <rect x="490" y="450" width="70" height="70" rx="5" fill="#1e293b" />
  <rect x="495" y="455" width="60" height="15" rx="2" fill="#334155" />
  <text x="500" y="466" font-family="Arial, sans-serif" font-size="8" fill="#60a5fa">Unit 39B</text>
  <text x="500" y="485" font-family="Arial, sans-serif" font-size="10" fill="#ffffff">Contract</text>
  <text x="500" y="500" font-family="Arial, sans-serif" font-size="10" fill="#10b981">92% Complete</text>
  
  <!-- Transaction Status Section -->
  <rect x="590" y="280" width="220" height="270" rx="5" fill="#334155" />
  <text x="610" y="310" font-family="Arial, sans-serif" font-size="16" font-weight="bold" fill="#ffffff">Transaction Status</text>
  
  <!-- Transactions -->
  <rect x="610" y="330" width="180" height="60" rx="5" fill="#1e293b" />
  <text x="625" y="350" font-family="Arial, sans-serif" font-size="12" font-weight="bold" fill="#ffffff">Unit 38A - J. Smith</text>
  <text x="625" y="370" font-family="Arial, sans-serif" font-size="10" fill="#60a5fa">Blockchain Verification</text>
  <rect x="625" y="380" width="150" height="4" rx="2" fill="#0f172a" />
  <rect x="625" y="380" width="128" height="4" rx="2" fill="#3b82f6" />
  <text x="765" y="370" font-family="Arial, sans-serif" font-size="10" fill="#3b82f6" text-anchor="end">85%</text>
  
  <rect x="610" y="400" width="180" height="60" rx="5" fill="#1e293b" />
  <text x="625" y="420" font-family="Arial, sans-serif" font-size="12" font-weight="bold" fill="#ffffff">Unit 39B - R. Williams</text>
  <text x="625" y="440" font-family="Arial, sans-serif" font-size="10" fill="#60a5fa">Final Review</text>
  <rect x="625" y="450" width="150" height="4" rx="2" fill="#0f172a" />
  <rect x="625" y="450" width="138" height="4" rx="2" fill="#10b981" />
  <text x="765" y="440" font-family="Arial, sans-serif" font-size="10" fill="#10b981" text-anchor="end">92%</text>
  
  <rect x="610" y="470" width="180" height="60" rx="5" fill="#1e293b" />
  <text x="625" y="490" font-family="Arial, sans-serif" font-size="12" font-weight="bold" fill="#ffffff">Unit 40B - S. Roberts</text>
  <text x="625" y="510" font-family="Arial, sans-serif" font-size="10" fill="#60a5fa">Document Collection</text>
  <rect x="625" y="520" width="150" height="4" rx="2" fill="#0f172a" />
  <rect x="625" y="520" width="90" height="4" rx="2" fill="#60a5fa" />
  <text x="765" y="510" font-family="Arial, sans-serif" font-size="10" fill="#60a5fa" text-anchor="end">60%</text>
  
  <!-- Time Comparison Chart -->
  <rect x="230" y="570" width="580" height="110" rx="5" fill="#334155" />
  <text x="250" y="595" font-family="Arial, sans-serif" font-size="16" font-weight="bold" fill="#ffffff">Completion Metrics</text>
  
  <!-- Chart Line -->
  <line x1="250" y1="635" x2="790" y2="635" stroke="#1e293b" stroke-width="2" />
  
  <!-- Traditional Process Line -->
  <path d="M250,630 L290,635 L330,625 L370,630 L410,620 L450,630 L490,625 L530,635 L570,625 L610,630 L650,625 L690,630 L730,625 L770,630" 
        stroke="#60a5fa" stroke-width="2" fill="none" />
  <circle cx="250" cy="630" r="3" fill="#60a5fa" />
  <circle cx="330" cy="625" r="3" fill="#60a5fa" />
  <circle cx="410" cy="620" r="3" fill="#60a5fa" />
  <circle cx="490" cy="625" r="3" fill="#60a5fa" />
  <circle cx="570" cy="625" r="3" fill="#60a5fa" />
  <circle cx="650" cy="625" r="3" fill="#60a5fa" />
  <circle cx="730" cy="625" r="3" fill="#60a5fa" />
  
  <!-- PropChain Process Line -->
  <path d="M250,615 L290,610 L330,605 L370,610 L410,600 L450,605 L490,600 L530,605 L570,600 L610,595 L650,600 L690,595 L730,590 L770,595" 
        stroke="#10b981" stroke-width="2" fill="none" />
  <circle cx="250" cy="615" r="3" fill="#10b981" />
  <circle cx="330" cy="605" r="3" fill="#10b981" />
  <circle cx="410" cy="600" r="3" fill="#10b981" />
  <circle cx="490" cy="600" r="3" fill="#10b981" />
  <circle cx="570" cy="600" r="3" fill="#10b981" />
  <circle cx="650" cy="600" r="3" fill="#10b981" />
  <circle cx="730" cy="590" r="3" fill="#10b981" />
  
  <!-- Chart Legend -->
  <rect x="250" y="650" width="12" height="3" fill="#60a5fa" />
  <text x="270" y="655" font-family="Arial, sans-serif" font-size="10" fill="#94a3b8">Traditional (12-16 weeks)</text>
  
  <rect x="400" y="650" width="12" height="3" fill="#10b981" />
  <text x="420" y="655" font-family="Arial, sans-serif" font-size="10" fill="#94a3b8">PropChain (3-4 weeks)</text>
  
  <!-- Donut Chart -->
  <circle cx="835" y="425" r="75" fill="#334155" />
  <circle cx="835" cy="425" r="60" fill="#1e293b" />
  
  <!-- Chart Segments -->
  <path d="M835,365 A60,60 0 0,1 887,395 L835,425 Z" fill="#3b82f6" />
  <path d="M835,425 A60,60 0 0,1 835,485 L835,425 Z" fill="#10b981" />
  <path d="M835,425 A60,60 0 0,1 783,395 L835,425 Z" fill="#60a5fa" />
  <path d="M835,485 A60,60 0 0,1 783,455 L835,425 Z" fill="#34d399" />
  <path d="M783,395 A60,60 0 0,1 783,455 L835,425 Z" fill="#6366f1" />
  
  <text x="835" y="425" font-family="Arial, sans-serif" font-size="14" font-weight="bold" fill="#ffffff" text-anchor="middle">Status</text>
  <text x="835" y="445" font-family="Arial, sans-serif" font-size="12" fill="#94a3b8" text-anchor="middle">Overview</text>
</svg>
