<svg xmlns="http://www.w3.org/2000/svg" viewBox="0 0 800 600">
  <!-- Office Background -->
  <rect width="800" height="600" fill="#1e293b" />
  
  <!-- Office Wall -->
  <rect x="0" y="0" width="800" height="300" fill="#334155" />
  
  <!-- Window -->
  <rect x="500" y="50" width="200" height="180" fill="#0f172a" stroke="#475569" stroke-width="10" />
  <line x1="600" y1="50" x2="600" y2="230" stroke="#475569" stroke-width="10" />
  <line x1="500" y1="140" x2="700" y2="140" stroke="#475569" stroke-width="10" />
  
  <!-- Cityscape in Window -->
  <rect x="505" y="55" width="90" height="80" fill="#1e293b" />
  <rect x="520" y="65" width="15" height="70" fill="#3b82f6" opacity="0.5" />
  <rect x="545" y="75" width="20" height="60" fill="#3b82f6" opacity="0.6" />
  <rect x="575" y="85" width="10" height="50" fill="#3b82f6" opacity="0.4" />
  
  <rect x="605" y="55" width="90" height="80" fill="#1e293b" />
  <rect x="615" y="70" width="20" height="65" fill="#3b82f6" opacity="0.5" />
  <rect x="645" y="60" width="15" height="75" fill="#3b82f6" opacity="0.6" />
  <rect x="670" y="80" width="15" height="55" fill="#3b82f6" opacity="0.4" />
  
  <rect x="505" y="145" width="190" height="80" fill="#1e293b" />
  <rect x="520" y="155" width="15" height="70" fill="#3b82f6" opacity="0.5" />
  <rect x="545" y="165" width="20" height="60" fill="#3b82f6" opacity="0.6" />
  <rect x="575" y="175" width="10" height="50" fill="#3b82f6" opacity="0.4" />
  <rect x="615" y="160" width="20" height="65" fill="#3b82f6" opacity="0.5" />
  <rect x="645" y="150" width="15" height="75" fill="#3b82f6" opacity="0.6" />
  <rect x="670" y="170" width="15" height="55" fill="#3b82f6" opacity="0.4" />
  
  <!-- Bookshelf -->
  <rect x="50" y="50" width="200" height="180" fill="#7c3aed" />
  <rect x="55" y="55" width="190" height="40" fill="#1e293b" />
  <rect x="55" y="100" width="190" height="40" fill="#1e293b" />
  <rect x="55" y="145" width="190" height="40" fill="#1e293b" />
  <rect x="55" y="190" width="190" height="35" fill="#1e293b" />
  
  <!-- Books -->
  <!-- Top Shelf -->
  <rect x="60" y="55" width="15" height="35" fill="#2563eb" />
  <rect x="78" y="55" width="12" height="35" fill="#10b981" />
  <rect x="92" y="55" width="18" height="35" fill="#3b82f6" />
  <rect x="112" y="55" width="10" height="35" fill="#34d399" />
  <rect x="124" y="55" width="14" height="35" fill="#64748b" />
  <rect x="140" y="55" width="16" height="35" fill="#475569" />
  <rect x="158" y="55" width="12" height="35" fill="#60a5fa" />
  <rect x="172" y="55" width="10" height="35" fill="#7c3aed" />
  <rect x="184" y="55" width="15" height="35" fill="#8b5cf6" />
  <rect x="201" y="55" width="12" height="35" fill="#2563eb" />
  <rect x="215" y="55" width="13" height="35" fill="#10b981" />
  <rect x="230" y="55" width="10" height="35" fill="#3b82f6" />
  
  <!-- Second Shelf -->
  <rect x="60" y="100" width="18" height="35" fill="#64748b" />
  <rect x="80" y="100" width="14" height="35" fill="#2563eb" />
  <rect x="96" y="100" width="12" height="35" fill="#10b981" />
  <rect x="110" y="100" width="15" height="35" fill="#7c3aed" />
  <rect x="127" y="100" width="10" height="35" fill="#3b82f6" />
  <rect x="139" y="100" width="17" height="35" fill="#34d399" />
  <rect x="158" y="100" width="13" height="35" fill="#60a5fa" />
  <rect x="173" y="100" width="11" height="35" fill="#475569" />
  <rect x="186" y="100" width="16" height="35" fill="#8b5cf6" />
  <rect x="204" y="100" width="15" height="35" fill="#60a5fa" />
  <rect x="221" y="100" width="19" height="35" fill="#2563eb" />
  
  <!-- Third Shelf -->
  <rect x="60" y="145" width="13" height="35" fill="#3b82f6" />
  <rect x="75" y="145" width="17" height="35" fill="#2563eb" />
  <rect x="94" y="145" width="15" height="35" fill="#60a5fa" />
  <rect x="111" y="145" width="12" height="35" fill="#7c3aed" />
  <rect x="125" y="145" width="16" height="35" fill="#10b981" />
  <rect x="143" y="145" width="14" height="35" fill="#475569" />
  <rect x="159" y="145" width="11" height="35" fill="#34d399" />
  <rect x="172" y="145" width="18" height="35" fill="#8b5cf6" />
  <rect x="192" y="145" width="13" height="35" fill="#3b82f6" />
  <rect x="207" y="145" width="16" height="35" fill="#2563eb" />
  <rect x="225" y="145" width="15" height="35" fill="#60a5fa" />
  
  <!-- Fourth Shelf -->
  <rect x="60" y="190" width="16" height="30" fill="#60a5fa" />
  <rect x="78" y="190" width="12" height="30" fill="#34d399" />
  <rect x="92" y="190" width="15" height="30" fill="#7c3aed" />
  <rect x="109" y="190" width="17" height="30" fill="#3b82f6" />
  <rect x="128" y="190" width="14" height="30" fill="#64748b" />
  <rect x="144" y="190" width="11" height="30" fill="#10b981" />
  <rect x="157" y="190" width="18" height="30" fill="#475569" />
  <rect x="177" y="190" width="13" height="30" fill="#8b5cf6" />
  <rect x="192" y="190" width="16" height="30" fill="#2563eb" />
  <rect x="210" y="190" width="14" height="30" fill="#60a5fa" />
  <rect x="226" y="190" width="15" height="30" fill="#3b82f6" />
  
  <!-- Desk -->
  <rect x="0" y="300" width="800" height="300" fill="#0f172a" />
  <rect x="100" y="300" width="600" height="15" fill="#475569" />
  <rect x="100" y="315" width="600" height="35" fill="#334155" />
  
  <!-- Desk Items -->
  <!-- Legal pad -->
  <rect x="120" y="330" width="80" height="100" fill="#fbbf24" opacity="0.7" />
  <line x1="130" y1="345" x2="190" y2="345" stroke="#0f172a" stroke-width="1" />
  <line x1="130" y1="360" x2="190" y2="360" stroke="#0f172a" stroke-width="1" />
  <line x1="130" y1="375" x2="190" y2="375" stroke="#0f172a" stroke-width="1" />
  <line x1="130" y1="390" x2="190" y2="390" stroke="#0f172a" stroke-width="1" />
  <line x1="130" y1="405" x2="190" y2="405" stroke="#0f172a" stroke-width="1" />
  <line x1="130" y1="420" x2="190" y2="420" stroke="#0f172a" stroke-width="1" />
  
  <!-- Pen holder -->
  <rect x="220" y="330" width="30" height="40" fill="#64748b" />
  <line x1="225" y1="330" x2="225" y2="315" stroke="#3b82f6" stroke-width="2" />
  <line x1="230" y1="330" x2="230" y2="310" stroke="#10b981" stroke-width="2" />
  <line x1="235" y1="330" x2="235" y2="312" stroke="#7c3aed" stroke-width="2" />
  <line x1="240" y1="330" x2="240" y2="315" stroke="#2563eb" stroke-width="2" />
  <line x1="245" y1="330" x2="245" y2="310" stroke="#60a5fa" stroke-width="2" />
  
  <!-- Coffee mug -->
  <rect x="680" y="330" width="30" height="35" rx="5" fill="#64748b" />
  <path d="M710,345 C720,345 720,355 710,355" stroke="#64748b" stroke-width="5" fill="none" />
  <ellipse cx="695" cy="335" rx="15" ry="5" fill="#475569" />
  
  <!-- Small stack of paper (reduced paperwork metaphor) -->
  <rect x="270" y="330" width="60" height="10" fill="#f8fafc" />
  <rect x="272" y="332" width="56" height="6" fill="#e2e8f0" />
  
  <!-- PropChain System on Monitor -->
  <rect x="350" y="330" width="300" height="200" rx="5" fill="#0f172a" stroke="#475569" stroke-width="5" />
  <rect x="360" y="340" width="280" height="180" rx="2" fill="#1e293b" />
  
  <!-- PropChain Interface -->
  <!-- Header -->
  <rect x="360" y="340" width="280" height="30" fill="#334155" />
  <text x="375" y="360" font-family="Arial, sans-serif" font-size="14" font-weight="bold" fill="#ffffff">PropChain Solicitor Dashboard</text>
  
  <!-- Logo -->
  <g transform="translate(620, 355) scale(0.3)">
    <!-- Chain link -->
    <path d="M20,20 C20,12 15,5 8,5 C1,5 -5,12 -5,20 C-5,28 1,35 8,35 L20,35" 
          fill="none" stroke="#3b82f6" stroke-width="4" stroke-linecap="round" />
    <path d="M18,35 L30,35 C37,35 43,28 43,20 C43,12 37,5 30,5 C23,5 18,12 18,20" 
          fill="none" stroke="#60a5fa" stroke-width="4" stroke-linecap="round" />
    
    <!-- House roof -->
    <path d="M5,5 L20,-5 L35,5" fill="none" stroke="#10b981" stroke-width="4" stroke-linecap="round" stroke-linejoin="round" />
    
    <!-- House body -->
    <rect x="13" y="5" width="15" height="15" fill="none" stroke="#34d399" stroke-width="4" stroke-linejoin="round" />
  </g>
  
  <!-- Sidebar -->
  <rect x="360" y="370" width="50" height="150" fill="#0f172a" />
  <rect x="370" y="380" width="30" height="20" rx="2" fill="#3b82f6" />
  <rect x="370" y="410" width="30" height="20" rx="2" fill="#334155" />
  <rect x="370" y="440" width="30" height="20" rx="2" fill="#334155" />
  <rect x="370" y="470" width="30" height="20" rx="2" fill="#334155" />
  <rect x="370" y="500" width="30" height="10" rx="2" fill="#10b981" />
  
  <!-- Main Content Area -->
  <rect x="420" y="380" width="210" height="140" rx="2" fill="#0f172a" />
  
  <!-- Document List -->
  <rect x="430" y="390" width="190" height="20" rx="2" fill="#334155" />
  <text x="440" y="405" font-family="Arial, sans-serif" font-size="10" fill="#ffffff">Property Transaction Documents</text>
  
  <!-- Document Items -->
  <rect x="430" y="420" width="190" height="25" rx="2" fill="#1e293b" />
  <text x="440" y="435" font-family="Arial, sans-serif" font-size="8" fill="#ffffff">Title Deed - 12 Woodland Heights</text>
  <rect x="580" y="425" width="30" height="15" rx="2" fill="#10b981" opacity="0.5" />
  <text x="595" y="435" font-family="Arial, sans-serif" font-size="8" fill="#10b981" text-anchor="middle">✓</text>
  
  <rect x="430" y="450" width="190" height="25" rx="2" fill="#1e293b" />
  <text x="440" y="465" font-family="Arial, sans-serif" font-size="8" fill="#ffffff">Mortgage Agreement</text>
  <rect x="580" y="455" width="30" height="15" rx="2" fill="#10b981" opacity="0.5" />
  <text x="595" y="465" font-family="Arial, sans-serif" font-size="8" fill="#10b981" text-anchor="middle">✓</text>
  
  <rect x="430" y="480" width="190" height="25" rx="2" fill="#1e293b" />
  <text x="440" y="495" font-family="Arial, sans-serif" font-size="8" fill="#ffffff">Survey Report</text>
  <rect x="580" y="485" width="30" height="15" rx="2" fill="#3b82f6" opacity="0.5" />
  <text x="595" y="495" font-family="Arial, sans-serif" font-size="8" fill="#60a5fa" text-anchor="middle">⟳</text>
  
  <!-- Progress Bar -->
  <rect x="420" y="530" width="210" height="20" rx="2" fill="#0f172a" />
  <text x="430" y="544" font-family="Arial, sans-serif" font-size="10" fill="#ffffff">Transaction Progress</text>
  <rect x="540" y="533" width="80" height="14" rx="7" fill="#334155" />
  <rect x="540" y="533" width="60" height="14" rx="7" fill="#3b82f6" />
  <text x="600" y="544" font-family="Arial, sans-serif" font-size="10" fill="#ffffff" text-anchor="end">75%</text>
  
  <!-- Person at desk -->
  <!-- Desk Chair -->
  <rect x="460" y="550" width="80" height="20" rx="5" fill="#334155" />
  <rect x="490" y="570" width="20" height="30" fill="#334155" />
  
  <!-- Person Body (simplified) -->
  <g transform="translate(500, 540)">
    <!-- Head -->
    <circle cx="0" cy="0" r="20" fill="#f8fafc" />
    
    <!-- Hair -->
    <path d="M-15,-5 C-15,-15 -5,-20 0,-20 C5,-20 15,-15 15,-5" fill="#64748b" />
    
    <!-- Face features -->
    <circle cx="-7" cy="-5" r="2" fill="#1e293b" />
    <circle cx="7" cy="-5" r="2" fill="#1e293b" />
    <path d="M-5,5 C-5,10 5,10 5,5" fill="none" stroke="#1e293b" stroke-width="1" />
    
    <!-- Torso -->
    <rect x="-25" y="20" width="50" height="60" rx="5" fill="#3b82f6" />
    
    <!-- Arms -->
    <rect x="-40" y="25" width="15" height="40" rx="5" fill="#3b82f6" />
    <rect x="25" y="25" width="15" height="40" rx="5" fill="#3b82f6" />
    
    <!-- Hands typing -->
    <circle cx="-40" cy="65" r="6" fill="#f8fafc" />
    <circle cx="40" cy="65" r="6" fill="#f8fafc" />
  </g>
  
  <!-- Blockchain visualization elements (subtle) -->
  <rect x="430" y="310" width="20" height="10" rx="2" fill="#334155" stroke="#10b981" stroke-width="1" opacity="0.7" />
  <rect x="460" y="310" width="20" height="10" rx="2" fill="#334155" stroke="#10b981" stroke-width="1" opacity="0.7" />
  <rect x="490" y="310" width="20" height="10" rx="2" fill="#334155" stroke="#10b981" stroke-width="1" opacity="0.7" />
  <rect x="520" y="310" width="20" height="10" rx="2" fill="#334155" stroke="#10b981" stroke-width="1" opacity="0.7" />
  <rect x="550" y="310" width="20" height="10" rx="2" fill="#334155" stroke="#10b981" stroke-width="1" opacity="0.7" />
  
  <line x1="450" y1="315" x2="460" y2="315" stroke="#60a5fa" stroke-width="1" opacity="0.7" />
  <line x1="480" y1="315" x2="490" y2="315" stroke="#60a5fa" stroke-width="1" opacity="0.7" />
  <line x1="510" y1="315" x2="520" y2="315" stroke="#60a5fa" stroke-width="1" opacity="0.7" />
  <line x1="540" y1="315" x2="550" y2="315" stroke="#60a5fa" stroke-width="1" opacity="0.7" />
  
  <!-- Legal Certificate on Wall -->
  <rect x="300" y="100" width="120" height="150" fill="#f8fafc" stroke="#64748b" stroke-width="5" />
  <rect x="310" y="110" width="100" height="130" fill="#e2e8f0" />
  <path d="M310,130 L410,130" stroke="#64748b" stroke-width="1" />
  <path d="M360,110 L360,240" stroke="#64748b" stroke-width="1" />
  <circle cx="360" cy="200" r="15" fill="#f8fafc" stroke="#3b82f6" stroke-width="2" />
  <path d="M350,200 L360,210 L370,190" stroke="#3b82f6" stroke-width="2" fill="none" />
  
  <!-- Framed scales of justice symbol -->
  <rect x="300" y="50" width="120" height="40" fill="#f8fafc" stroke="#64748b" stroke-width="2" />
  <rect x="310" y="55" width="100" height="30" fill="#e2e8f0" />
  
  <!-- Scales of justice (simplified) -->
  <line x1="360" y1="60" x2="360" y2="80" stroke="#64748b" stroke-width="2" />
  <line x1="340" y1="60" x2="380" y2="60" stroke="#64748b" stroke-width="2" />
  <circle cx="340" cy="70" r="6" fill="none" stroke="#64748b" stroke-width="1" />
  <circle cx="380" cy="70" r="6" fill="none" stroke="#64748b" stroke-width="1" />
  
  <!-- Subtle lighting -->
  <rect x="0" y="0" width="800" height="600" fill="url(#lighting)" opacity="0.1" />
  <defs>
    <radialGradient id="lighting" cx="500" cy="300" r="500" fx="500" fy="300">
      <stop offset="0%" stop-color="#ffffff" stop-opacity="1" />
      <stop offset="100%" stop-color="#000000" stop-opacity="0" />
    </radialGradient>
  </defs>
</svg>
