<svg xmlns="http://www.w3.org/2000/svg" viewBox="0 0 400 400">
  <!-- Background -->
  <rect width="400" height="400" fill="#1e293b" />
  
  <!-- Subtle gradient overlay -->
  <defs>
    <radialGradient id="backgroundGradient" cx="200" cy="200" r="300" fx="200" fy="200">
      <stop offset="0%" stop-color="#334155" stop-opacity="0.5" />
      <stop offset="100%" stop-color="#0f172a" stop-opacity="0.8" />
    </radialGradient>
  </defs>
  <rect width="400" height="400" fill="url(#backgroundGradient)" />
  
  <!-- Subtle edge lighting -->
  <rect x="0" y="0" width="400" height="400" fill="none" stroke="#3b82f6" stroke-width="1" stroke-opacity="0.3" />
  
  <!-- Person -->
  <g transform="translate(200, 200)">
    <!-- Professional Blazer - legal appropriate -->
    <path d="M-60,-20 L-90,150 L90,150 L60,-20 z" fill="#0f172a" />
    <path d="M-40,-20 L-45,150 L45,150 L40,-20 z" fill="#1e293b" />
    
    <!-- Professional blouse -->
    <path d="M-25,-20 L-15,40 L0,50 L15,40 L25,-20 z" fill="#f8fafc" />
    
    <!-- Necklace - subtle professional accessory -->
    <path d="M-5,0 C-3,15 3,15 5,0" fill="none" stroke="#94a3b8" stroke-width="1" />
    <circle cx="0" cy="15" r="2" fill="#94a3b8" />
    
    <!-- Neck -->
    <path d="M-15,-50 L-20,-20 L20,-20 L15,-50 z" fill="#f8fafc" />
    
    <!-- Head - female with professional style -->
    <ellipse cx="0" cy="-90" rx="45" ry="55" fill="#f8fafc" />
    
    <!-- Hair - professional style suitable for legal profession -->
    <path d="M-45,-120 C-55,-140 -20,-160 0,-160 C20,-160 55,-140 45,-120 L30,-90 L0,-95 L-30,-90 z" fill="#64748b" />
    <path d="M-40,-115 C-45,-135 -15,-150 0,-150 C15,-150 45,-135 40,-115 L30,-90 L0,-95 L-30,-90 z" fill="#475569" />
    
    <!-- Professional length hair -->
    <path d="M-45,-90 C-50,-70 -45,-50 -40,-40" fill="none" stroke="#475569" stroke-width="25" />
    <path d="M45,-90 C50,-70 45,-50 40,-40" fill="none" stroke="#475569" stroke-width="25" />
    
    <!-- Ears with small earrings -->
    <ellipse cx="-45" cy="-90" rx="7" ry="12" fill="#f8fafc" />
    <ellipse cx="45" cy="-90" rx="7" ry="12" fill="#f8fafc" />
    <circle cx="-45" cy="-85" r="2" fill="#94a3b8" />
    <circle cx="45" cy="-85" r="2" fill="#94a3b8" />
    
    <!-- Eyes -->
    <ellipse cx="-15" cy="-95" rx="6" ry="4" fill="#1e293b" />
    <ellipse cx="15" cy="-95" rx="6" ry="4" fill="#1e293b" />
    
    <!-- Eyebrows -->
    <path d="M-25,-106 C-20,-108 -10,-108 -5,-106" fill="none" stroke="#475569" stroke-width="1.5" />
    <path d="M25,-106 C20,-108 10,-108 5,-106" fill="none" stroke="#475569" stroke-width="1.5" />
    
    <!-- Nose -->
    <path d="M0,-90 L3,-75 L0,-70 L-3,-75 z" fill="#f8fafc" stroke="#e2e8f0" stroke-width="0.5" />
    
    <!-- Mouth - professional smile -->
    <path d="M-10,-65 C-5,-60 5,-60 10,-65" fill="none" stroke="#334155" stroke-width="1.5" />
    
    <!-- Subtle makeup - professional -->
    <path d="M-17,-95 C-15,-93 -13,-93 -11,-95" fill="#f8fafc" />
    <path d="M17,-95 C15,-93 13,-93 11,-95" fill="#f8fafc" />
    <path d="M-10,-65 C-5,-60 5,-60 10,-65" fill="#f472b6" fill-opacity="0.1" />
  </g>
  
  <!-- Professional subtle lighting effect -->
  <circle cx="150" cy="150" r="180" fill="url(#lighting)" />
  <defs>
    <radialGradient id="lighting" cx="150" cy="150" r="180" fx="120" fy="120">
      <stop offset="0%" stop-color="#ffffff" stop-opacity="0.05" />
      <stop offset="100%" stop-color="#ffffff" stop-opacity="0" />
    </radialGradient>
  </defs>
  
  <!-- PropChain branding element - subtle -->
  <g transform="translate(350, 350) scale(0.15)">
    <!-- Chain link -->
    <path d="M30,30 C30,22 25,15 18,15 C11,15 5,22 5,30 C5,38 11,45 18,45 L30,45" 
          fill="none" stroke="#3b82f6" stroke-width="4" stroke-linecap="round" />
    <path d="M28,45 L40,45 C47,45 53,38 53,30 C53,22 47,15 40,15 C33,15 28,22 28,30" 
          fill="none" stroke="#60a5fa" stroke-width="4" stroke-linecap="round" />
    
    <!-- House roof -->
    <path d="M15,15 L40,0 L65,15" fill="none" stroke="#10b981" stroke-width="4" stroke-linecap="round" stroke-linejoin="round" />
    
    <!-- House body -->
    <rect x="25" y="15" width="30" height="30" fill="none" stroke="#34d399" stroke-width="4" stroke-linejoin="round" />
  </g>
</svg>
