<svg xmlns="http://www.w3.org/2000/svg" viewBox="0 0 800 600">
  <!-- Background -->
  <rect width="800" height="600" fill="#1e293b" />
  
  <!-- Header -->
  <rect x="0" y="0" width="800" height="70" fill="#334155" />
  <text x="40" y="45" font-family="Arial, sans-serif" font-size="24" font-weight="bold" fill="#ffffff">PropChain Property Passport</text>
  
  <!-- Logo -->
  <circle cx="750" cy="35" r="20" fill="#3b82f6" />
  <path d="M740,35 C740,31 737,28 734,28 C731,28 728,31 728,35 C728,39 731,42 734,42 L740,42" 
        fill="none" stroke="#ffffff" stroke-width="2" stroke-linecap="round" />
  <path d="M739,42 L745,42 C748,42 751,39 751,35 C751,31 748,28 745,28 C742,28 739,31 739,35" 
        fill="none" stroke="#ffffff" stroke-width="2" stroke-linecap="round" />
  <text x="735" y="39" font-family="Arial, sans-serif" font-size="16" font-weight="bold" fill="#ffffff">PC</text>
  
  <!-- Property Image and Details -->
  <rect x="40" y="100" width="720" height="180" rx="5" fill="#334155" />
  
  <!-- Property Image -->
  <rect x="60" y="120" width="220" height="140" rx="5" fill="#60a5fa" />
  <rect x="60" y="120" width="220" height="140" rx="5" fill="#2563eb" opacity="0.3" />
  <!-- House silhouette -->
  <path d="M130,220 L130,180 L170,150 L210,180 L210,220 Z" fill="#334155" opacity="0.8" />
  <rect x="155" y="190" width="30" height="30" fill="#334155" opacity="0.8" />
  
  <!-- Property Details -->
  <text x="310" y="140" font-family="Arial, sans-serif" font-size="22" font-weight="bold" fill="#ffffff">12 Woodland Heights, Unit 42B</text>
  <text x="310" y="170" font-family="Arial, sans-serif" font-size="16" fill="#60a5fa">4 Bedroom Townhouse | 2,450 sq ft | Built 2022</text>
  
  <!-- Property Status and Verification -->
  <rect x="310" y="190" width="180" height="30" rx="15" fill="#10b981" />
  <text x="400" y="210" font-family="Arial, sans-serif" font-size="14" font-weight="bold" fill="#ffffff" text-anchor="middle">BLOCKCHAIN VERIFIED</text>
  <circle cx="330" cy="205" r="10" fill="#ffffff" />
  <path d="M325,205 L330,210 L335,200" stroke="#10b981" stroke-width="2" fill="none" />
  
  <!-- Last Updated -->
  <text x="520" y="210" font-family="Arial, sans-serif" font-size="14" fill="#ffffff">Last Updated: 15 March 2025</text>
  
  <!-- Tab Navigation -->
  <rect x="40" y="300" width="720" height="40" fill="#1e293b" />
  
  <!-- Active Tab -->
  <rect x="40" y="300" width="150" height="40" fill="#3b82f6" rx="5 5 0 0" />
  <text x="115" y="325" font-family="Arial, sans-serif" font-size="14" font-weight="bold" fill="#ffffff" text-anchor="middle">OVERVIEW</text>
  
  <!-- Inactive Tabs -->
  <rect x="190" y="300" width="150" height="40" fill="#334155" rx="5 5 0 0" />
  <text x="265" y="325" font-family="Arial, sans-serif" font-size="14" fill="#ffffff" text-anchor="middle">OWNERSHIP</text>
  
  <rect x="340" y="300" width="150" height="40" fill="#334155" rx="5 5 0 0" />
  <text x="415" y="325" font-family="Arial, sans-serif" font-size="14" fill="#ffffff" text-anchor="middle">SURVEYS</text>
  
  <rect x="490" y="300" width="150" height="40" fill="#334155" rx="5 5 0 0" />
  <text x="565" y="325" font-family="Arial, sans-serif" font-size="14" fill="#ffffff" text-anchor="middle">PLANNING</text>
  
  <rect x="640" y="300" width="120" height="40" fill="#334155" rx="5 5 0 0" />
  <text x="700" y="325" font-family="Arial, sans-serif" font-size="14" fill="#ffffff" text-anchor="middle">LEGAL</text>
  
  <!-- Main Content Area -->
  <rect x="40" y="340" width="720" height="240" rx="5" fill="#334155" />
  
  <!-- Overview Content -->
  
  <!-- Property Value -->
  <rect x="60" y="360" width="330" height="100" rx="5" fill="#1e293b" />
  <text x="80" y="385" font-family="Arial, sans-serif" font-size="16" font-weight="bold" fill="#ffffff">Property Value</text>
  <text x="80" y="420" font-family="Arial, sans-serif" font-size="24" font-weight="bold" fill="#10b981">£450,000</text>
  <text x="80" y="445" font-family="Arial, sans-serif" font-size="14" fill="#60a5fa">Last Valuation: 10 February 2025</text>
  
  <!-- Mini Value Chart -->
  <line x1="210" y1="430" x2="370" y2="430" stroke="#334155" stroke-width="1" />
  <path d="M210,430 L240,425 L270,430 L300,415 L330,400 L360,390" stroke="#34d399" stroke-width="2" fill="none" />
  <circle cx="360" cy="390" r="4" fill="#34d399" />
  
  <!-- Key Features -->
  <rect x="410" y="360" width="330" height="100" rx="5" fill="#1e293b" />
  <text x="430" y="385" font-family="Arial, sans-serif" font-size="16" font-weight="bold" fill="#ffffff">Key Features</text>
  
  <!-- Feature Points -->
  <circle cx="440" cy="410" r="4" fill="#60a5fa" />
  <text x="455" y="415" font-family="Arial, sans-serif" font-size="14" fill="#ffffff">Energy Rating: B (EPC Certificate Verified)</text>
  
  <circle cx="440" cy="435" r="4" fill="#60a5fa" />
  <text x="455" y="440" font-family="Arial, sans-serif" font-size="14" fill="#ffffff">Freehold (Title Number: WK876532)</text>
  
  <circle cx="440" cy="460" r="4" fill="#60a5fa" />
  <text x="455" y="465" font-family="Arial, sans-serif" font-size="14" fill="#ffffff">Council Tax Band: E (£2,450 per annum)</text>
  
  <!-- Ownership Timeline -->
  <rect x="60" y="470" width="680" height="90" rx="5" fill="#1e293b" />
  <text x="80" y="495" font-family="Arial, sans-serif" font-size="16" font-weight="bold" fill="#ffffff">Ownership Timeline</text>
  
  <!-- Timeline -->
  <line x1="80" y1="525" x2="720" y2="525" stroke="#334155" stroke-width="3" />
  
  <!-- Timeline Points -->
  <circle cx="140" cy="525" r="8" fill="#3b82f6" />
  <text x="140" y="550" font-family="Arial, sans-serif" font-size="12" fill="#ffffff" text-anchor="middle">2022</text>
  <text x="140" y="515" font-family="Arial, sans-serif" font-size="10" fill="#60a5fa" text-anchor="middle">Built</text>
  
  <circle cx="240" cy="525" r="8" fill="#3b82f6" />
  <text x="240" y="550" font-family="Arial, sans-serif" font-size="12" fill="#ffffff" text-anchor="middle">Jun 2022</text>
  <text x="240" y="515" font-family="Arial, sans-serif" font-size="10" fill="#60a5fa" text-anchor="middle">First Sale</text>
  
  <circle cx="380" cy="525" r="8" fill="#3b82f6" />
  <text x="380" y="550" font-family="Arial, sans-serif" font-size="12" fill="#ffffff" text-anchor="middle">Apr 2023</text>
  <text x="380" y="515" font-family="Arial, sans-serif" font-size="10" fill="#60a5fa" text-anchor="middle">Second Sale</text>
  
  <circle cx="520" cy="525" r="8" fill="#10b981" />
  <text x="520" y="550" font-family="Arial, sans-serif" font-size="12" fill="#ffffff" text-anchor="middle">Feb 2025</text>
  <text x="520" y="515" font-family="Arial, sans-serif" font-size="10" fill="#34d399" text-anchor="middle">Current Owner</text>
  
  <circle cx="660" cy="525" r="8" fill="#334155" stroke="#60a5fa" stroke-width="2" />
  <text x="660" y="550" font-family="Arial, sans-serif" font-size="12" fill="#ffffff" text-anchor="middle">Present</text>
  
  <!-- Status Bar -->
  <rect x="0" y="570" width="800" height="30" fill="#334155" />
  <text x="40" y="590" font-family="Arial, sans-serif" font-size="12" fill="#60a5fa">Document Hash: 0x3f8e2a7c1d9b5e6f4a2d3c8b7a6f5e4d3c2b1a0f9e8d7c6b5a4f3e2d1c</text>
  <text x="600" y="590" font-family="Arial, sans-serif" font-size="12" fill="#10b981">Blockchain Verified ✓</text>
  
  <!-- Document Additional Info Icons -->
  <circle cx="720" cy="140" r="15" fill="#334155" stroke="#60a5fa" stroke-width="2" />
  <text x="720" y="145" font-family="Arial, sans-serif" font-size="16" font-weight="bold" fill="#ffffff" text-anchor="middle">i</text>
  
  <circle cx="760" cy="140" r="15" fill="#334155" stroke="#10b981" stroke-width="2" />
  <path d="M755,140 L760,145 L765,135" stroke="#10b981" stroke-width="2" fill="none" />
  
  <!-- Survey Overview Section -->
  <g opacity="0.4">
    <rect x="50" y="350" width="700" height="220" rx="5" fill="#1e293b" />
    <text x="400" y="450" font-family="Arial, sans-serif" font-size="18" font-weight="bold" fill="#ffffff" text-anchor="middle">Click on 'SURVEYS' tab to view survey details</text>
  </g>
</svg>
