<svg xmlns="http://www.w3.org/2000/svg" viewBox="0 0 1000 700">
  <!-- Main Background -->
  <rect width="1000" height="700" fill="#1e293b" />
  
  <!-- Left Sidebar -->
  <rect x="0" y="0" width="200" height="700" fill="#0f172a" />
  
  <!-- PropChain Logo -->
  <g transform="translate(30, 40)">
    <!-- Chain link -->
    <path d="M30,30 C30,22 25,15 18,15 C11,15 5,22 5,30 C5,38 11,45 18,45 L30,45" 
          fill="none" stroke="#3b82f6" stroke-width="4" stroke-linecap="round" />
    <path d="M28,45 L40,45 C47,45 53,38 53,30 C53,22 47,15 40,15 C33,15 28,22 28,30" 
          fill="none" stroke="#60a5fa" stroke-width="4" stroke-linecap="round" />
    
    <!-- House roof -->
    <path d="M15,15 L40,0 L65,15" fill="none" stroke="#10b981" stroke-width="4" stroke-linecap="round" stroke-linejoin="round" />
    
    <!-- House body -->
    <rect x="25" y="15" width="30" height="30" fill="none" stroke="#34d399" stroke-width="4" stroke-linejoin="round" />
  </g>
  <text x="100" y="75" font-family="Arial, sans-serif" font-size="18" font-weight="bold" fill="#ffffff" text-anchor="middle">PropChain</text>
  <text x="100" y="95" font-family="Arial, sans-serif" font-size="12" fill="#60a5fa" text-anchor="middle">Solicitor Portal</text>
  
  <!-- Navigation Menu -->
  <rect x="20" y="140" width="160" height="45" rx="5" fill="#3b82f6" />
  <text x="60" y="168" font-family="Arial, sans-serif" font-size="14" fill="#ffffff">Dashboard</text>
  <rect x="25" y="152" width="20" height="20" fill="#60a5fa" rx="3" />
  <rect x="30" y="157" width="10" height="10" fill="#ffffff" rx="1" />
  
  <rect x="20" y="195" width="160" height="45" rx="5" fill="#0f172a" />
  <text x="60" y="223" font-family="Arial, sans-serif" font-size="14" fill="#ffffff">Transactions</text>
  <rect x="25" y="207" width="20" height="20" fill="#60a5fa" rx="3" />
  <rect x="30" y="212" width="10" height="10" fill="#ffffff" rx="1" />
  
  <rect x="20" y="250" width="160" height="45" rx="5" fill="#0f172a" />
  <text x="60" y="278" font-family="Arial, sans-serif" font-size="14" fill="#ffffff">Documents</text>
  <rect x="25" y="262" width="20" height="20" fill="#60a5fa" rx="3" />
  <rect x="30" y="267" width="10" height="10" fill="#ffffff" rx="1" />
  
  <rect x="20" y="305" width="160" height="45" rx="5" fill="#0f172a" />
  <text x="60" y="333" font-family="Arial, sans-serif" font-size="14" fill="#ffffff">Clients</text>
  <rect x="25" y="317" width="20" height="20" fill="#60a5fa" rx="3" />
  <rect x="30" y="322" width="10" height="10" fill="#ffffff" rx="1" />
  
  <rect x="20" y="360" width="160" height="45" rx="5" fill="#0f172a" />
  <text x="60" y="388" font-family="Arial, sans-serif" font-size="14" fill="#ffffff">Communications</text>
  <rect x="25" y="372" width="20" height="20" fill="#60a5fa" rx="3" />
  <rect x="30" y="377" width="10" height="10" fill="#ffffff" rx="1" />
  
  <rect x="20" y="415" width="160" height="45" rx="5" fill="#0f172a" />
  <text x="60" y="443" font-family="Arial, sans-serif" font-size="14" fill="#ffffff">Search</text>
  <rect x="25" y="427" width="20" height="20" fill="#60a5fa" rx="3" />
  <rect x="30" y="432" width="10" height="10" fill="#ffffff" rx="1" />
  
  <rect x="20" y="470" width="160" height="45" rx="5" fill="#0f172a" />
  <text x="60" y="498" font-family="Arial, sans-serif" font-size="14" fill="#ffffff">Settings</text>
  <rect x="25" y="482" width="20" height="20" fill="#60a5fa" rx="3" />
  <rect x="30" y="487" width="10" height="10" fill="#ffffff" rx="1" />
  
  <!-- User Profile -->
  <circle cx="50" cy="600" r="25" fill="#60a5fa" />
  <text x="50" y="605" font-family="Arial, sans-serif" font-size="16" font-weight="bold" fill="#ffffff" text-anchor="middle">RD</text>
  <text x="100" y="595" font-family="Arial, sans-serif" font-size="14" fill="#ffffff">Robert Davis</text>
  <text x="100" y="615" font-family="Arial, sans-serif" font-size="12" fill="#60a5fa">Davis & Partners LLP</text>
  
  <!-- Main Content Area -->
  <!-- Top Bar -->
  <rect x="200" y="0" width="800" height="70" fill="#0f172a" />
  <text x="240" y="40" font-family="Arial, sans-serif" font-size="20" font-weight="bold" fill="#ffffff">Solicitor Dashboard</text>
  
  <!-- Search Bar -->
  <rect x="600" y="20" width="250" height="35" rx="5" fill="#1e293b" stroke="#334155" stroke-width="1" />
  <text x="625" y="42" font-family="Arial, sans-serif" font-size="14" fill="#64748b">Search property, client, transaction...</text>
  <circle cx="615" cy="37" r="8" fill="none" stroke="#64748b" stroke-width="2" />
  <line x1="621" y1="43" x2="628" y2="50" stroke="#64748b" stroke-width="2" />
  
  <!-- Notification Icons -->
  <circle cx="890" cy="37" r="15" fill="#1e293b" />
  <text x="890" y="42" font-family="Arial, sans-serif" font-size="12" fill="#60a5fa" text-anchor="middle">4</text>
  
  <circle cx="930" cy="37" r="15" fill="#1e293b" />
  <path d="M925,37 L930,42 L935,37" stroke="#60a5fa" stroke-width="2" fill="none" />
  
  <!-- Dashboard Content -->
  <!-- Summary Cards -->
  <rect x="220" y="90" width="240" height="120" rx="5" fill="#334155" />
  <text x="240" y="120" font-family="Arial, sans-serif" font-size="16" fill="#ffffff">Active Transactions</text>
  <text x="240" y="160" font-family="Arial, sans-serif" font-size="36" font-weight="bold" fill="#3b82f6">14</text>
  <path d="M360,140 L380,120 L400,130 L420,110" stroke="#3b82f6" stroke-width="2" fill="none" />
  <text x="420" y="105" font-family="Arial, sans-serif" font-size="12" fill="#3b82f6">+3</text>
  
  <rect x="480" y="90" width="240" height="120" rx="5" fill="#334155" />
  <text x="500" y="120" font-family="Arial, sans-serif" font-size="16" fill="#ffffff">Avg. Transaction Time</text>
  <text x="500" y="160" font-family="Arial, sans-serif" font-size="36" font-weight="bold" fill="#10b981">3.2</text>
  <text x="560" y="160" font-family="Arial, sans-serif" font-size="16" fill="#ffffff">weeks</text>
  <path d="M620,140 L640,150 L660,125 L680,115" stroke="#10b981" stroke-width="2" fill="none" />
  <text x="680" y="110" font-family="Arial, sans-serif" font-size="12" fill="#10b981">-48%</text>
  
  <rect x="740" y="90" width="240" height="120" rx="5" fill="#334155" />
  <text x="760" y="120" font-family="Arial, sans-serif" font-size="16" fill="#ffffff">Document Verification</text>
  <text x="760" y="160" font-family="Arial, sans-serif" font-size="36" font-weight="bold" fill="#60a5fa">98%</text>
  <circle cx="880" cy="140" r="40" fill="none" stroke="#334155" stroke-width="5" />
  <path d="M880,140 m0,-40 a40,40 0 1,1 0,80 a40,40 0 1,1 0,-80" stroke="#60a5fa" stroke-width="5" stroke-dasharray="240 11" fill="none" />
  
  <!-- Transaction Timeline Section -->
  <rect x="220" y="230" width="760" height="230" rx="5" fill="#334155" />
  <text x="240" y="260" font-family="Arial, sans-serif" font-size="18" font-weight="bold" fill="#ffffff">Transaction Timeline</text>
  <text x="240" y="285" font-family="Arial, sans-serif" font-size="14" fill="#60a5fa">Property: 12 Woodland Heights, Unit 42B</text>
  
  <!-- Client Tags -->
  <rect x="680" y="250" width="80" height="25" rx="12" fill="#3b82f6" opacity="0.2" />
  <text x="720" y="267" font-family="Arial, sans-serif" font-size="12" fill="#3b82f6" text-anchor="middle">BUYER</text>
  
  <rect x="770" y="250" width="80" height="25" rx="12" fill="#10b981" opacity="0.2" />
  <text x="810" y="267" font-family="Arial, sans-serif" font-size="12" fill="#10b981" text-anchor="middle">SELLER</text>
  
  <rect x="860" y="250" width="100" height="25" rx="12" fill="#60a5fa" opacity="0.2" />
  <text x="910" y="267" font-family="Arial, sans-serif" font-size="12" fill="#60a5fa" text-anchor="middle">PRIORITY</text>
  
  <!-- Timeline Bar -->
  <line x1="240" y1="350" x2="940" y2="350" stroke="#60a5fa" stroke-width="4" />
  
  <!-- Timeline Points -->
  <circle cx="280" cy="350" r="15" fill="#10b981" />
  <text x="280" y="390" font-family="Arial, sans-serif" font-size="12" fill="#ffffff" text-anchor="middle">Initial</text>
  <text x="280" y="405" font-family="Arial, sans-serif" font-size="12" fill="#ffffff" text-anchor="middle">Inquiry</text>
  <text x="280" y="425" font-family="Arial, sans-serif" font-size="10" fill="#60a5fa" text-anchor="middle">Mar 1, 2025</text>
  
  <circle cx="380" cy="350" r="15" fill="#10b981" />
  <text x="380" y="390" font-family="Arial, sans-serif" font-size="12" fill="#ffffff" text-anchor="middle">Document</text>
  <text x="380" y="405" font-family="Arial, sans-serif" font-size="12" fill="#ffffff" text-anchor="middle">Collection</text>
  <text x="380" y="425" font-family="Arial, sans-serif" font-size="10" fill="#60a5fa" text-anchor="middle">Mar 5, 2025</text>
  
  <circle cx="480" cy="350" r="15" fill="#10b981" />
  <text x="480" y="390" font-family="Arial, sans-serif" font-size="12" fill="#ffffff" text-anchor="middle">Title</text>
  <text x="480" y="405" font-family="Arial, sans-serif" font-size="12" fill="#ffffff" text-anchor="middle">Search</text>
  <text x="480" y="425" font-family="Arial, sans-serif" font-size="10" fill="#60a5fa" text-anchor="middle">Mar 10, 2025</text>
  
  <circle cx="580" cy="350" r="15" fill="#10b981" />
  <text x="580" y="390" font-family="Arial, sans-serif" font-size="12" fill="#ffffff" text-anchor="middle">Contract</text>
  <text x="580" y="405" font-family="Arial, sans-serif" font-size="12" fill="#ffffff" text-anchor="middle">Draft</text>
  <text x="580" y="425" font-family="Arial, sans-serif" font-size="10" fill="#60a5fa" text-anchor="middle">Mar 15, 2025</text>
  
  <circle cx="680" cy="350" r="15" fill="#3b82f6" />
  <text x="680" y="390" font-family="Arial, sans-serif" font-size="12" fill="#ffffff" text-anchor="middle">Blockchain</text>
  <text x="680" y="405" font-family="Arial, sans-serif" font-size="12" fill="#ffffff" text-anchor="middle">Verification</text>
  <text x="680" y="425" font-family="Arial, sans-serif" font-size="10" fill="#60a5fa" text-anchor="middle">In Progress</text>
  
  <circle cx="780" cy="350" r="15" fill="#334155" stroke="#60a5fa" stroke-width="2" />
  <text x="780" y="390" font-family="Arial, sans-serif" font-size="12" fill="#ffffff" text-anchor="middle">Exchange</text>
  <text x="780" y="425" font-family="Arial, sans-serif" font-size="10" fill="#60a5fa" text-anchor="middle">Pending</text>
  
  <circle cx="880" cy="350" r="15" fill="#334155" stroke="#60a5fa" stroke-width="2" />
  <text x="880" y="390" font-family="Arial, sans-serif" font-size="12" fill="#ffffff" text-anchor="middle">Completion</text>
  <text x="880" y="425" font-family="Arial, sans-serif" font-size="10" fill="#60a5fa" text-anchor="middle">Pending</text>
  
  <!-- Timeline Status -->
  <rect x="240" y="440" width="700" height="10" rx="5" fill="#1e293b" />
  <rect x="240" y="440" width="430" height="10" rx="5" fill="#3b82f6" />
  
  <!-- Document Verification Section -->
  <rect x="220" y="480" width="500" height="200" rx="5" fill="#334155" />
  <text x="240" y="510" font-family="Arial, sans-serif" font-size="18" font-weight="bold" fill="#ffffff">Document Verification</text>
  
  <!-- Document Table Header -->
  <rect x="240" y="530" width="460" height="30" rx="3" fill="#1e293b" />
  <text x="260" y="550" font-family="Arial, sans-serif" font-size="12" fill="#ffffff" font-weight="bold">Document</text>
  <text x="450" y="550" font-family="Arial, sans-serif" font-size="12" fill="#ffffff" font-weight="bold">Status</text>
  <text x="580" y="550" font-family="Arial, sans-serif" font-size="12" fill="#ffffff" font-weight="bold">Verified</text>
  <text x="660" y="550" font-family="Arial, sans-serif" font-size="12" fill="#ffffff" font-weight="bold">Date</text>
  
  <!-- Document Items -->
  <rect x="240" y="570" width="460" height="30" rx="3" fill="#0f172a" />
  <text x="260" y="590" font-family="Arial, sans-serif" font-size="12" fill="#ffffff">Title Deed</text>
  <rect x="440" y="575" width="80" height="20" rx="10" fill="#10b981" opacity="0.2" />
  <text x="480" y="590" font-family="Arial, sans-serif" font-size="10" fill="#10b981" text-anchor="middle">VERIFIED</text>
  <rect x="570" y="575" width="30" height="20" rx="3" fill="#10b981" />
  <path d="M575,585 L580,590 L595,575" stroke="#ffffff" stroke-width="1.5" fill="none" />
  <text x="660" y="590" font-family="Arial, sans-serif" font-size="12" fill="#60a5fa">Mar 10</text>
  
  <rect x="240" y="610" width="460" height="30" rx="3" fill="#0f172a" />
  <text x="260" y="630" font-family="Arial, sans-serif" font-size="12" fill="#ffffff">Property Survey</text>
  <rect x="440" y="615" width="80" height="20" rx="10" fill="#10b981" opacity="0.2" />
  <text x="480" y="630" font-family="Arial, sans-serif" font-size="10" fill="#10b981" text-anchor="middle">VERIFIED</text>
  <rect x="570" y="615" width="30" height="20" rx="3" fill="#10b981" />
  <path d="M575,625 L580,630 L595,615" stroke="#ffffff" stroke-width="1.5" fill="none" />
  <text x="660" y="630" font-family="Arial, sans-serif" font-size="12" fill="#60a5fa">Mar 12</text>
  
  <rect x="240" y="650" width="460" height="30" rx="3" fill="#0f172a" />
  <text x="260" y="670" font-family="Arial, sans-serif" font-size="12" fill="#ffffff">Draft Contract</text>
  <rect x="440" y="655" width="80" height="20" rx="10" fill="#3b82f6" opacity="0.2" />
  <text x="480" y="670" font-family="Arial, sans-serif" font-size="10" fill="#3b82f6" text-anchor="middle">REVIEWING</text>
  <rect x="570" y="655" width="30" height="20" rx="3" fill="#3b82f6" />
  <text x="585" y="670" font-family="Arial, sans-serif" font-size="12" fill="#ffffff" text-anchor="middle">...</text>
  <text x="660" y="670" font-family="Arial, sans-serif" font-size="12" fill="#60a5fa">Mar 18</text>
  
  <!-- Client Communication Section -->
  <rect x="740" y="480" width="240" height="200" rx="5" fill="#334155" />
  <text x="760" y="510" font-family="Arial, sans-serif" font-size="18" font-weight="bold" fill="#ffffff">Client Communication</text>
  
  <!-- Message Items -->
  <rect x="760" y="530" width="200" height="60" rx="5" fill="#0f172a" />
  <circle cx="780" cy="550" r="10" fill="#3b82f6" />
  <text x="780" y="554" font-family="Arial, sans-serif" font-size="9" fill="#ffffff" text-anchor="middle">JS</text>
  <text x="800" y="545" font-family="Arial, sans-serif" font-size="12" fill="#ffffff">John Smith (Buyer)</text>
  <text x="800" y="565" font-family="Arial, sans-serif" font-size="10" fill="#60a5fa">Contract Review Question</text>
  <text x="800" y="580" font-family="Arial, sans-serif" font-size="9" fill="#ffffff">2 hours ago</text>
  <rect x="925" y="550" width="20" height="20" rx="10" fill="#10b981" opacity="0.2" />
  <circle cx="935" cy="560" r="6" fill="#10b981" opacity="0.9" />
  
  <rect x="760" y="600" width="200" height="60" rx="5" fill="#0f172a" />
  <circle cx="780" cy="620" r="10" fill="#10b981" />
  <text x="780" y="624" font-family="Arial, sans-serif" font-size="9" fill="#ffffff" text-anchor="middle">AJ</text>
  <text x="800" y="615" font-family="Arial, sans-serif" font-size="12" fill="#ffffff">Amy Johnson (Seller)</text>
  <text x="800" y="635" font-family="Arial, sans-serif" font-size="10" fill="#60a5fa">Final Document Inquiry</text>
  <text x="800" y="650" font-family="Arial, sans-serif" font-size="9" fill="#ffffff">Yesterday</text>
  <rect x="925" y="620" width="20" height="20" rx="10" fill="#64748b" opacity="0.2" />
  <path d="M930,620 L940,620 M935,615 L935,625" stroke="#64748b" stroke-width="1.5" />
  
  <!-- Blockchain indicators -->
  <g transform="translate(930, 140)">
    <rect x="0" y="0" width="30" height="8" rx="1" fill="#334155" stroke="#10b981" stroke-width="1" />
    <rect x="5" y="5" width="30" height="8" rx="1" fill="#334155" stroke="#10b981" stroke-width="1" />
    <rect x="10" y="10" width="30" height="8" rx="1" fill="#334155" stroke="#10b981" stroke-width="1" />
  </g>
  
  <!-- Smart Contract Button -->
  <rect x="875" y="200" width="105" height="30" rx="5" fill="#0f172a" stroke="#10b981" stroke-width="1" />
  <text x="925" y="220" font-family="Arial, sans-serif" font-size="12" fill="#10b981" text-anchor="middle">SMART CONTRACT</text>
  <circle cx="890" cy="215" r="8" fill="#0f172a" stroke="#10b981" stroke-width="1" />
  <text x="890" y="219" font-family="Arial, sans-serif" font-size="10" fill="#10b981" text-anchor="middle">✓</text>
</svg>
