<svg xmlns="http://www.w3.org/2000/svg" viewBox="0 0 400 400">
  <!-- Background -->
  <rect width="400" height="400" fill="#1e293b" />
  
  <!-- Subtle gradient overlay -->
  <defs>
    <radialGradient id="backgroundGradient" cx="200" cy="200" r="300" fx="200" fy="200">
      <stop offset="0%" stop-color="#334155" stop-opacity="0.5" />
      <stop offset="100%" stop-color="#0f172a" stop-opacity="0.8" />
    </radialGradient>
  </defs>
  <rect width="400" height="400" fill="url(#backgroundGradient)" />
  
  <!-- Subtle edge lighting -->
  <rect x="0" y="0" width="400" height="400" fill="none" stroke="#3b82f6" stroke-width="1" stroke-opacity="0.3" />
  
  <!-- Person -->
  <g transform="translate(200, 200)">
    <!-- Business suit - operations appropriate -->
    <path d="M-60,-20 L-90,150 L90,150 L60,-20 z" fill="#0f172a" />
    <path d="M-40,-20 L-45,150 L45,150 L40,-20 z" fill="#1e293b" />
    
    <!-- Shirt -->
    <path d="M-30,-20 L-20,40 L0,60 L20,40 L30,-20 z" fill="#f8fafc" />
    
    <!-- Tie - operations styled (subtle pattern) -->
    <path d="M-5,-20 L-12,30 L0,60 L12,30 L5,-20 z" fill="#10b981" />
    <path d="M-2,-10 L-6,30 L0,40 L6,30 L2,-10 z" fill="#0f172a" fill-opacity="0.3" />
    
    <!-- Neck -->
    <path d="M-15,-50 L-20,-20 L20,-20 L15,-50 z" fill="#f8fafc" />
    
    <!-- Head -->
    <ellipse cx="0" cy="-90" rx="50" ry="60" fill="#f8fafc" />
    
    <!-- Hair - neat professional style -->
    <path d="M-45,-110 C-50,-140 -30,-150 0,-150 C30,-150 50,-140 45,-110 L35,-90 L0,-95 L-35,-90 z" fill="#0f172a" />
    
    <!-- Ears -->
    <ellipse cx="-50" cy="-90" rx="8" ry="15" fill="#f8fafc" />
    <ellipse cx="50" cy="-90" rx="8" ry="15" fill="#f8fafc" />
    
    <!-- Subtle glasses - operations focus -->
    <rect x="-35" y="-95" width="25" height="8" rx="2" fill="none" stroke="#64748b" stroke-width="1.5" />
    <rect x="10" y="-95" width="25" height="8" rx="2" fill="none" stroke="#64748b" stroke-width="1.5" />
    <line x1="-10" y1="-91" x2="10" y2="-91" stroke="#64748b" stroke-width="1.5" />
    
    <!-- Eyes behind glasses -->
    <ellipse cx="-22" cy="-91" rx="5" ry="3" fill="#1e293b" />
    <ellipse cx="22" cy="-91" rx="5" ry="3" fill="#1e293b" />
    
    <!-- Eyebrows -->
    <path d="M-30,-105 C-25,-107 -15,-107 -10,-105" fill="none" stroke="#0f172a" stroke-width="1.5" />
    <path d="M30,-105 C25,-107 15,-107 10,-105" fill="none" stroke="#0f172a" stroke-width="1.5" />
    
    <!-- Nose -->
    <path d="M0,-85 L5,-70 L0,-65 L-5,-70 z" fill="#f8fafc" stroke="#e2e8f0" stroke-width="0.5" />
    
    <!-- Mouth - approachable operations smile -->
    <path d="M-15,-55 C-5,-48 5,-48 15,-55" fill="none" stroke="#334155" stroke-width="1.5" />
    
    <!-- Professional well-groomed facial hair -->
    <path d="M-25,-60 L-20,-50 L-5,-45 L5,-45 L20,-50 L25,-60" fill="#0f172a" fill-opacity="0.2" />
    <path d="M-15,-60 L-12,-55 L-5,-50 L5,-50 L12,-55 L15,-60" fill="#0f172a" fill-opacity="0.2" />
  </g>
  
  <!-- Professional subtle lighting effect -->
  <circle cx="150" cy="150" r="180" fill="url(#lighting)" />
  <defs>
    <radialGradient id="lighting" cx="150" cy="150" r="180" fx="120" fy="120">
      <stop offset="0%" stop-color="#ffffff" stop-opacity="0.05" />
      <stop offset="100%" stop-color="#ffffff" stop-opacity="0" />
    </radialGradient>
  </defs>
  
  <!-- PropChain branding element - subtle -->
  <g transform="translate(350, 350) scale(0.15)">
    <!-- Chain link -->
    <path d="M30,30 C30,22 25,15 18,15 C11,15 5,22 5,30 C5,38 11,45 18,45 L30,45" 
          fill="none" stroke="#3b82f6" stroke-width="4" stroke-linecap="round" />
    <path d="M28,45 L40,45 C47,45 53,38 53,30 C53,22 47,15 40,15 C33,15 28,22 28,30" 
          fill="none" stroke="#60a5fa" stroke-width="4" stroke-linecap="round" />
    
    <!-- House roof -->
    <path d="M15,15 L40,0 L65,15" fill="none" stroke="#10b981" stroke-width="4" stroke-linecap="round" stroke-linejoin="round" />
    
    <!-- House body -->
    <rect x="25" y="15" width="30" height="30" fill="none" stroke="#34d399" stroke-width="4" stroke-linejoin="round" />
  </g>
</svg>
