<svg xmlns="http://www.w3.org/2000/svg" viewBox="0 0 1000 800">
  <!-- Background -->
  <rect width="1000" height="800" fill="#1e293b" />
  
  <!-- Title -->
  <text x="500" y="50" font-family="Arial, sans-serif" font-size="28" font-weight="bold" fill="#ffffff" text-anchor="middle">PropChain Technical Architecture</text>
  
  <!-- Layer Labels -->
  <text x="100" y="125" font-family="Arial, sans-serif" font-size="18" font-weight="bold" fill="#ffffff">UI Layer</text>
  <text x="100" y="275" font-family="Arial, sans-serif" font-size="18" font-weight="bold" fill="#ffffff">Application Layer</text>
  <text x="100" y="480" font-family="Arial, sans-serif" font-size="18" font-weight="bold" fill="#ffffff">Blockchain Layer</text>
  <text x="100" y="660" font-family="Arial, sans-serif" font-size="18" font-weight="bold" fill="#ffffff">Integration Layer</text>
  
  <!-- Layer Dividers -->
  <line x1="100" y1="170" x2="900" y2="170" stroke="#60a5fa" stroke-width="2" stroke-dasharray="5,5" />
  <line x1="100" y1="370" x2="900" y2="370" stroke="#60a5fa" stroke-width="2" stroke-dasharray="5,5" />
  <line x1="100" y1="580" x2="900" y2="580" stroke="#60a5fa" stroke-width="2" stroke-dasharray="5,5" />
  <line x1="100" y1="720" x2="900" y2="720" stroke="#60a5fa" stroke-width="2" stroke-dasharray="5,5" />
  
  <!-- UI Layer Components -->
  <!-- Web Interface -->
  <rect x="200" y="90" width="120" height="60" rx="5" fill="#334155" stroke="#3b82f6" stroke-width="2" />
  <text x="260" y="125" font-family="Arial, sans-serif" font-size="14" fill="#ffffff" text-anchor="middle">Web Interface</text>
  <rect x="204" y="94" width="16" height="16" fill="#60a5fa" rx="2" />
  <rect x="208" y="98" width="8" height="8" fill="#ffffff" rx="1" />
  
  <!-- Mobile App -->
  <rect x="350" y="90" width="120" height="60" rx="5" fill="#334155" stroke="#3b82f6" stroke-width="2" />
  <text x="410" y="125" font-family="Arial, sans-serif" font-size="14" fill="#ffffff" text-anchor="middle">Mobile App</text>
  <rect x="354" y="94" width="16" height="16" fill="#60a5fa" rx="2" />
  <path d="M362,97 L362,107 M358,99 L366,99 M358,105 L366,105" stroke="#ffffff" stroke-width="1.5" fill="none" />
  
  <!-- Developer Dashboard -->
  <rect x="500" y="90" width="120" height="60" rx="5" fill="#334155" stroke="#3b82f6" stroke-width="2" />
  <text x="560" y="125" font-family="Arial, sans-serif" font-size="14" fill="#ffffff" text-anchor="middle">Developer Dashboard</text>
  <rect x="504" y="94" width="16" height="16" fill="#60a5fa" rx="2" />
  <path d="M507,99 L517,99 M507,102 L517,102 M507,105 L513,105" stroke="#ffffff" stroke-width="1" fill="none" />
  
  <!-- Solicitor Interface -->
  <rect x="650" y="90" width="120" height="60" rx="5" fill="#334155" stroke="#3b82f6" stroke-width="2" />
  <text x="710" y="125" font-family="Arial, sans-serif" font-size="14" fill="#ffffff" text-anchor="middle">Solicitor Interface</text>
  <rect x="654" y="94" width="16" height="16" fill="#60a5fa" rx="2" />
  <path d="M659,97 L665,102 L659,107" stroke="#ffffff" stroke-width="1.5" fill="none" />
  
  <!-- Application Layer Components -->
  <!-- Transaction Manager -->
  <rect x="225" y="190" width="150" height="60" rx="5" fill="#334155" stroke="#10b981" stroke-width="2" />
  <text x="300" y="220" font-family="Arial, sans-serif" font-size="14" fill="#ffffff" text-anchor="middle">Transaction Manager</text>
  <rect x="229" y="194" width="16" height="16" fill="#34d399" rx="2" />
  <path d="M234,202 L240,202 M237,199 L237,205" stroke="#ffffff" stroke-width="1.5" fill="none" />
  
  <!-- Document Repository -->
  <rect x="400" y="190" width="150" height="60" rx="5" fill="#334155" stroke="#10b981" stroke-width="2" />
  <text x="475" y="220" font-family="Arial, sans-serif" font-size="14" fill="#ffffff" text-anchor="middle">Document Repository</text>
  <rect x="404" y="194" width="16" height="16" fill="#34d399" rx="2" />
  <path d="M407,199 L417,199 M407,202 L417,202 M407,205 L417,205" stroke="#ffffff" stroke-width="1" fill="none" />
  
  <!-- Authentication Service -->
  <rect x="575" y="190" width="150" height="60" rx="5" fill="#334155" stroke="#10b981" stroke-width="2" />
  <text x="650" y="220" font-family="Arial, sans-serif" font-size="14" fill="#ffffff" text-anchor="middle">Authentication Service</text>
  <rect x="579" y="194" width="16" height="16" fill="#34d399" rx="2" />
  <path d="M587,198 C587,196 585,194 583,194 C581,194 579,196 579,198 C579,200 581,202 583,202 L587,202" fill="none" stroke="#ffffff" stroke-width="1" />
  
  <!-- API Gateway -->
  <rect x="400" y="270" width="150" height="60" rx="5" fill="#334155" stroke="#10b981" stroke-width="2" />
  <text x="475" y="300" font-family="Arial, sans-serif" font-size="14" fill="#ffffff" text-anchor="middle">API Gateway</text>
  <rect x="404" y="274" width="16" height="16" fill="#34d399" rx="2" />
  <path d="M409,282 L415,282 M412,279 L412,285" stroke="#ffffff" stroke-width="1.5" fill="none" />
  
  <!-- Smart Contract Layer -->
  <!-- Smart Contract Manager -->
  <rect x="225" y="390" width="150" height="60" rx="5" fill="#334155" stroke="#2563eb" stroke-width="2" />
  <text x="300" y="420" font-family="Arial, sans-serif" font-size="14" fill="#ffffff" text-anchor="middle">Smart Contract Manager</text>
  <rect x="229" y="394" width="16" height="16" fill="#3b82f6" rx="2" />
  <path d="M235,397 L235,407 M232,399 L238,399 M232,405 L238,405" stroke="#ffffff" stroke-width="1" fill="none" />
  
  <!-- Contract Templates -->
  <rect x="400" y="390" width="150" height="60" rx="5" fill="#334155" stroke="#2563eb" stroke-width="2" />
  <text x="475" y="420" font-family="Arial, sans-serif" font-size="14" fill="#ffffff" text-anchor="middle">Contract Templates</text>
  <rect x="404" y="394" width="16" height="16" fill="#3b82f6" rx="2" />
  <path d="M407,399 L417,399 M407,402 L417,402 M407,405 L413,405" stroke="#ffffff" stroke-width="1" fill="none" />
  
  <!-- Verification Engine -->
  <rect x="575" y="390" width="150" height="60" rx="5" fill="#334155" stroke="#2563eb" stroke-width="2" />
  <text x="650" y="420" font-family="Arial, sans-serif" font-size="14" fill="#ffffff" text-anchor="middle">Verification Engine</text>
  <rect x="579" y="394" width="16" height="16" fill="#3b82f6" rx="2" />
  <path d="M583,397 L591,405 M591,397 L583,405" stroke="#ffffff" stroke-width="1.5" fill="none" />
  
  <!-- Blockchain Layer Components -->
  <g transform="translate(225, 460)">
    <!-- Blockchain Node -->
    <rect x="0" y="30" width="150" height="60" rx="5" fill="#334155" stroke="#60a5fa" stroke-width="2" />
    <text x="75" y="65" font-family="Arial, sans-serif" font-size="14" fill="#ffffff" text-anchor="middle">Blockchain Node</text>
    <rect x="4" y="34" width="16" height="16" fill="#60a5fa" rx="2" />
    
    <!-- Blocks visualization -->
    <rect x="10" y="40" width="10" height="10" fill="#334155" stroke="#ffffff" stroke-width="1" />
    <rect x="14" y="36" width="10" height="10" fill="#334155" stroke="#ffffff" stroke-width="1" />
    
    <!-- Smart Contracts Execution Environment -->
    <rect x="175" y="30" width="150" height="60" rx="5" fill="#334155" stroke="#60a5fa" stroke-width="2" />
    <text x="250" y="60" font-family="Arial, sans-serif" font-size="14" fill="#ffffff" text-anchor="middle">Smart Contracts</text>
    <text x="250" y="78" font-family="Arial, sans-serif" font-size="14" fill="#ffffff" text-anchor="middle">Execution Environment</text>
    <rect x="179" y="34" width="16" height="16" fill="#60a5fa" rx="2" />
    <path d="M182,38 L188,38 M185,35 L185,41" stroke="#ffffff" stroke-width="1" fill="none" />
    <path d="M182,43 L188,43 M185,40 L185,46" stroke="#ffffff" stroke-width="1" fill="none" transform="rotate(90 185 42)" />
    
    <!-- Consensus Mechanism -->
    <rect x="350" y="30" width="150" height="60" rx="5" fill="#334155" stroke="#60a5fa" stroke-width="2" />
    <text x="425" y="65" font-family="Arial, sans-serif" font-size="14" fill="#ffffff" text-anchor="middle">Consensus Mechanism</text>
    <rect x="354" y="34" width="16" height="16" fill="#60a5fa" rx="2" />
    <circle cx="362" cy="42" r="5" fill="none" stroke="#ffffff" stroke-width="1" />
    <path d="M362,33 L362,37 M369,42 L365,42 M362,51 L362,47 M355,42 L359,42" stroke="#ffffff" stroke-width="1" />
  </g>
  
  <!-- Integration Layer Components -->
  <!-- Land Registry -->
  <rect x="225" y="610" width="120" height="60" rx="5" fill="#334155" stroke="#34d399" stroke-width="2" />
  <text x="285" y="645" font-family="Arial, sans-serif" font-size="14" fill="#ffffff" text-anchor="middle">Land Registry API</text>
  <rect x="229" y="614" width="16" height="16" fill="#10b981" rx="2" />
  <path d="M232,622 L242,622" stroke="#ffffff" stroke-width="1.5" fill="none" />
  
  <!-- Banking System -->
  <rect x="375" y="610" width="120" height="60" rx="5" fill="#334155" stroke="#34d399" stroke-width="2" />
  <text x="435" y="645" font-family="Arial, sans-serif" font-size="14" fill="#ffffff" text-anchor="middle">Banking System</text>
  <rect x="379" y="614" width="16" height="16" fill="#10b981" rx="2" />
  <path d="M382,622 L392,622 M387,617 L387,627" stroke="#ffffff" stroke-width="1.5" fill="none" />
  
  <!-- Legal Databases -->
  <rect x="525" y="610" width="120" height="60" rx="5" fill="#334155" stroke="#34d399" stroke-width="2" />
  <text x="585" y="645" font-family="Arial, sans-serif" font-size="14" fill="#ffffff" text-anchor="middle">Legal Databases</text>
  <rect x="529" y="614" width="16" height="16" fill="#10b981" rx="2" />
  <path d="M532,619 L542,619 M532,622 L542,622 M532,625 L542,625" stroke="#ffffff" stroke-width="1" fill="none" />
  
  <!-- External Systems -->
  <rect x="675" y="610" width="120" height="60" rx="5" fill="#334155" stroke="#34d399" stroke-width="2" />
  <text x="735" y="645" font-family="Arial, sans-serif" font-size="14" fill="#ffffff" text-anchor="middle">External Systems</text>
  <rect x="679" y="614" width="16" height="16" fill="#10b981" rx="2" />
  <path d="M684,622 L690,622" stroke="#ffffff" stroke-width="1.5" fill="none" />
  <path d="M684,619 L690,619" stroke="#ffffff" stroke-width="1" fill="none" />
  <path d="M684,625 L690,625" stroke="#ffffff" stroke-width="1" fill="none" />
  
  <!-- Integration Data Flow -->
  <rect x="400" y="695" width="150" height="40" rx="5" fill="#334155" stroke="#10b981" stroke-width="2" />
  <text x="475" y="720" font-family="Arial, sans-serif" font-size="14" fill="#ffffff" text-anchor="middle">Integration Bus</text>
  
  <!-- Connections between components -->
  <!-- UI to Application Layer -->
  <line x1="260" y1="150" x2="260" y2="190" stroke="#60a5fa" stroke-width="1.5" />
  <line x1="410" y1="150" x2="410" y2="190" stroke="#60a5fa" stroke-width="1.5" />
  <line x1="560" y1="150" x2="560" y2="190" stroke="#60a5fa" stroke-width="1.5" />
  <line x1="710" y1="150" x2="650" y2="190" stroke="#60a5fa" stroke-width="1.5" />
  
  <!-- API Gateway Connections -->
  <line x1="300" y1="250" x2="400" y2="290" stroke="#60a5fa" stroke-width="1.5" />
  <line x1="475" y1="250" x2="475" y2="270" stroke="#60a5fa" stroke-width="1.5" />
  <line x1="650" y1="250" x2="550" y2="290" stroke="#60a5fa" stroke-width="1.5" />
  
  <!-- API to Smart Contract Layer -->
  <line x1="400" y1="330" x2="300" y2="390" stroke="#60a5fa" stroke-width="1.5" />
  <line x1="475" y1="330" x2="475" y2="390" stroke="#60a5fa" stroke-width="1.5" />
  <line x1="550" y1="330" x2="650" y2="390" stroke="#60a5fa" stroke-width="1.5" />
  
  <!-- Smart Contract to Blockchain Layer -->
  <line x1="300" y1="450" x2="300" y2="490" stroke="#60a5fa" stroke-width="1.5" />
  <line x1="475" y1="450" x2="475" y2="490" stroke="#60a5fa" stroke-width="1.5" />
  <line x1="650" y1="450" x2="650" y2="490" stroke="#60a5fa" stroke-width="1.5" />
  
  <!-- Blockchain to Integration Layer -->
  <line x1="300" y1="550" x2="300" y2="610" stroke="#60a5fa" stroke-width="1.5" />
  <line x1="475" y1="550" x2="435" y2="610" stroke="#60a5fa" stroke-width="1.5" />
  <line x1="650" y1="550" x2="585" y2="610" stroke="#60a5fa" stroke-width="1.5" />
  <line x1="650" y1="550" x2="735" y2="610" stroke="#60a5fa" stroke-width="1.5" />
  
  <!-- Integration Bus Connections -->
  <line x1="285" y1="670" x2="400" y2="715" stroke="#60a5fa" stroke-width="1.5" />
  <line x1="435" y1="670" x2="450" y2="695" stroke="#60a5fa" stroke-width="1.5" />
  <line x1="585" y1="670" x2="500" y2="715" stroke="#60a5fa" stroke-width="1.5" />
  <line x1="735" y1="670" x2="550" y2="715" stroke="#60a5fa" stroke-width="1.5" />
  
  <!-- Legend -->
  <rect x="750" y="740" width="20" height="10" fill="#334155" stroke="#3b82f6" stroke-width="2" />
  <text x="780" y="748" font-family="Arial, sans-serif" font-size="12" fill="#ffffff">UI Components</text>
  
  <rect x="750" y="760" width="20" height="10" fill="#334155" stroke="#10b981" stroke-width="2" />
  <text x="780" y="768" font-family="Arial, sans-serif" font-size="12" fill="#ffffff">Application Services</text>
  
  <rect x="750" y="780" width="20" height="10" fill="#334155" stroke="#2563eb" stroke-width="2" />
  <text x="780" y="788" font-family="Arial, sans-serif" font-size="12" fill="#ffffff">Smart Contract Components</text>
  
  <rect x="750" y="800" width="20" height="10" fill="#334155" stroke="#60a5fa" stroke-width="2" />
  <text x="780" y="808" font-family="Arial, sans-serif" font-size="12" fill="#ffffff">Blockchain Components</text>
  
  <rect x="750" y="820" width="20" height="10" fill="#334155" stroke="#34d399" stroke-width="2" />
  <text x="780" y="828" font-family="Arial, sans-serif" font-size="12" fill="#ffffff">External Integrations</text>
</svg>
